<svg version="1.2" xmlns="http://www.w3.org/2000/svg" viewBox="0 0 5250 7425" width="5250" height="7425">
	<title>1_1-svg</title>
	<style>
		.s0 { fill: #d5a81a } 
	</style>
	<g id="Слой_x0020_1">
		<path id="Layer" fill-rule="evenodd" class="s0" d="m1225.4 4387.4q-0.4 0-0.8 0c-11.2-0.3-20.8-8.3-23.3-19.3-5.5-24-15.2-41.6-33.6-60.8-16.7-17.4-38.7-33.5-62.1-50.6-70.4-51.4-156.9-114.6-156.6-259.7-11.3 1-22.3 1.4-32.8 1.5-136.5 0-189.3-81.2-236-152.7-16.6-25.6-32.4-49.7-51.2-69.6-19.4-20.6-39.3-33.6-60.6-39.9-10.9-3.1-18.2-13.2-17.8-24.5 0.3-11.3 8.3-20.9 19.3-23.4 24-5.4 41.6-15.1 60.8-33.5 17.4-16.7 33.5-38.8 50.6-62.1 50.9-69.8 114.3-156.7 259.1-156.7q0.3 0 0.6 0c-5.9-67.9 6.1-123.2 36.3-168.3 30.2-45.2 73.3-73.3 114.9-100.4 25.6-16.7 49.7-32.4 69.6-51.3 20.6-19.4 33.6-39.2 39.9-60.6 3.1-10.8 13.2-18.1 24.5-17.8 11.3 0.4 20.9 8.3 23.4 19.3 5.4 24 15.1 41.6 33.5 60.8 16.7 17.5 38.8 33.6 62.1 50.6 70.4 51.4 156.9 114.6 156.6 259.8 11.4-1 22.3-1.5 32.8-1.5 136.5 0 189.4 81.1 236 152.7 16.7 25.5 32.4 49.7 51.2 69.6 19.5 20.5 39.3 33.5 60.7 39.8 10.8 3.2 18.1 13.3 17.8 24.6-0.4 11.2-8.3 20.8-19.3 23.3-24 5.4-41.7 15.2-60.8 33.6-17.5 16.7-33.6 38.7-50.6 62.1-51 69.7-114.4 156.6-259.2 156.6q-0.3 0-0.6 0c5.9 67.9-6.1 123.2-36.3 168.4-30.2 45.2-73.2 73.2-114.9 100.4-25.5 16.6-49.7 32.4-69.6 51.2-20.5 19.4-33.6 39.3-39.8 60.6-3.1 10.6-12.8 17.8-23.8 17.8zm-250.5-443.2c6.2 0 12.2 2.3 16.9 6.6 5.5 5.1 8.4 12.5 7.8 20.1-10.9 139.1 63.4 193.4 135.2 245.8 25.2 18.4 48.9 35.8 68.7 56.3 9.6 10 17.6 20.1 24.2 30.6 7.7-10.5 16.7-20.6 27.3-30.6 23.1-21.9 50.3-39.6 76.6-56.7 39.2-25.6 76.2-49.7 100.8-86.5 27.6-41.3 35.6-93.1 24.9-163-1.2-7.4 1.2-15 6.3-20.6 5.2-5.5 12.6-8.4 20.1-7.8 9.1 0.7 18.1 1.1 26.7 1.1 119.7 0 170.3-69.3 219.2-136.3 18.4-25.2 35.7-49 56.3-68.7 10-9.6 20.1-17.6 30.6-24.2q-15.8-11.5-30.6-27.3c-21.9-23.1-39.6-50.3-56.8-76.6-22.4-34.4-43.6-66.9-73.4-91.1-32.7-26.7-71.2-39.1-121.1-39.1-17 0-35.4 1.5-54.9 4.5-7.5 1.1-15.1-1.2-20.6-6.3-5.6-5.2-8.4-12.6-7.9-20.1 11-139.2-63.3-193.4-135.2-245.9-25.1-18.4-48.9-35.7-68.6-56.3-9.6-10-17.6-20.1-24.3-30.6-7.7 10.5-16.7 20.7-27.2 30.6-23.2 21.9-50.4 39.6-76.6 56.8-39.2 25.5-76.3 49.6-100.9 86.4-27.6 41.3-35.5 93.1-24.9 163 1.2 7.5-1.2 15.1-6.3 20.6-5.1 5.6-12.5 8.4-20.1 7.8-9.1-0.7-18.1-1-26.7-1-119.6 0-170.2 69.3-219.2 136.3-18.3 25.1-35.7 48.9-56.2 68.6-10.1 9.6-20.1 17.6-30.6 24.3 10.4 7.6 20.6 16.7 30.6 27.2 21.9 23.2 39.6 50.3 56.7 76.6 22.4 34.5 43.6 67 73.4 91.2 32.7 26.6 71.2 39 121.1 39 17 0 35.5-1.5 55-4.4q1.8-0.3 3.7-0.3z"/>
		<path id="Layer" fill-rule="evenodd" class="s0" d="m1224.6 4099.3q-0.8 0-1.7 0c-9-0.6-16.9-6.1-20.7-14.2-6-12.8-13.9-20.4-24.7-30.9-11.2-10.7-25-24.1-37.9-45.6-28.3-47.3-37.4-112.2-26.2-177-23.8 5.6-48.3 8.5-71.5 8.5-48.9 0-91.4-12.9-122.9-37.2-13.2-10.1-22.3-21.7-31.1-33-10.5-13.4-20.4-26-37.9-37.3-7.6-4.9-11.9-13.5-11.3-22.5 0.6-9 6-16.9 14.2-20.8 12.8-6 20.4-13.8 30.9-24.7 10.7-11.1 24.1-25 45.6-37.8 33.3-20 77.1-31 123.4-31 17.8 0 35.8 1.6 53.6 4.7-14.6-62.8-13.6-139.6 28.7-194.4 10.1-13.1 21.7-22.2 32.9-31 13.4-10.5 26.1-20.4 37.4-38 4.9-7.5 13.5-11.9 22.5-11.2 9 0.6 16.9 6 20.8 14.2 6 12.7 13.8 20.3 24.7 30.8 11.1 10.8 24.9 24.1 37.8 45.7 28.3 47.2 37.5 112.1 26.2 176.9 23.9-5.5 48.3-8.5 71.6-8.5 48.9 0 91.4 12.9 122.9 37.2 13.1 10.2 22.2 21.8 31 33 10.5 13.4 20.4 26 38 37.4 7.5 4.9 11.8 13.5 11.2 22.5-0.6 8.9-6 16.9-14.2 20.7-12.7 6-20.3 13.8-30.8 24.7-10.8 11.1-24.1 25-45.7 37.9-33.3 19.9-77.1 30.9-123.3 30.9-17.9 0-35.8-1.6-53.6-4.7 14.6 62.9 13.6 139.7-28.7 194.4-10.2 13.2-21.8 22.3-33 31.1-13.4 10.5-26.1 20.4-37.4 37.9-4.6 7.1-12.4 11.3-20.8 11.3zm-76.8-328.8c6.2 0 12.4 2.4 17 6.8 7 6.5 9.5 16.5 6.6 25.6-21 65.1-16.9 134.2 10.7 180.2 9.5 15.9 19.4 25.4 29.8 35.5 4.8 4.7 9.7 9.4 14.5 14.7 9-9 18-16 25.8-22.2 9.7-7.6 18-14.1 24.4-22.3 37.5-48.7 31.3-130.4 8.4-189.7-3.4-8.9-1.4-19 5.1-25.9 6.6-7 16.5-9.5 25.6-6.6 27.1 8.7 54.9 13.2 82.4 13.2 37.4 0 72.2-8.5 97.9-23.9 15.9-9.5 25.4-19.4 35.5-29.8 4.6-4.8 9.4-9.7 14.6-14.5-9-9-16-18-22.2-25.8-7.5-9.7-14-18-22.3-24.4-28.7-22.2-66.2-26.8-92.6-26.8-31.8 0-66.3 6.5-97.1 18.4-8.9 3.4-19 1.4-25.9-5.1-6.9-6.6-9.5-16.6-6.5-25.6 20.9-65.1 16.8-134.2-10.8-180.3-9.5-15.9-19.3-25.4-29.7-35.5-4.9-4.6-9.8-9.4-14.5-14.6-9.1 9-18 16-25.9 22.2-9.6 7.5-18 14-24.3 22.3-37.6 48.6-31.3 130.3-8.5 189.7 3.5 8.9 1.5 19-5.1 25.9-6.5 6.9-16.5 9.5-25.6 6.5-27.1-8.7-54.8-13.1-82.3-13.1-37.5 0-72.2 8.4-98 23.8-15.9 9.6-25.4 19.4-35.4 29.8-4.7 4.9-9.4 9.8-14.7 14.5 9 9.1 16 18 22.2 25.9 7.6 9.6 14.1 17.9 22.3 24.3 28.8 22.2 66.3 26.9 92.7 26.9 31.7 0 66.2-6.6 97-18.4 2.9-1.1 5.9-1.7 8.9-1.7z"/>
		<path id="Layer" fill-rule="evenodd" class="s0" d="m1040.2 4206.9c-36.7 0-72-7.4-106.1-14.6-29.9-6.3-58.1-12.3-85.5-13q-2.9-0.1-5.9-0.1c-25.6 0-46.9 4.8-65.1 14.8-9.9 5.4-22.2 3.4-29.9-4.8-7.7-8.2-8.9-20.6-2.9-30.2 13.1-20.8 18.7-40.1 19.3-66.7 0.5-24.1-3.7-51.1-8.2-79.7-13.4-86.1-29.9-191.9 72.9-294.4-52.1-43.9-82.8-91.4-93.4-144.7-10.5-53.3 0.1-103.6 10.3-152.3 6.3-29.8 12.3-58 13-85.4 0.8-28.3-4-51.5-14.7-71-5.4-9.9-3.4-22.2 4.8-30 8.2-7.7 20.6-8.9 30.2-2.8 20.8 13.1 40.1 18.7 66.7 19.2q2 0.1 4 0.1c23.1 0 48.6-4 75.7-8.2 31.5-4.9 64.1-10 98.6-10 76.8 0 139.7 26.5 195.8 82.9 55.8-66.6 117.1-97.8 190.8-97.8 36.7 0 72 7.5 106.2 14.7 29.8 6.3 58 12.2 85.4 13q3 0.1 5.9 0c25.6 0 46.9-4.8 65.1-14.7 9.9-5.4 22.2-3.5 30 4.8 7.7 8.2 8.9 20.6 2.8 30.1-13.1 20.8-18.7 40.1-19.2 66.7-0.5 24.2 3.7 51.1 8.1 79.7 13.4 86.1 30 192-72.9 294.4 52.2 43.9 82.8 91.5 93.4 144.7 10.6 53.4 0 103.7-10.3 152.3-6.3 29.9-12.2 58-13 85.4-0.8 28.3 4.1 51.6 14.7 71.1 5.4 9.9 3.5 22.2-4.8 29.9-8.2 7.7-20.6 8.9-30.1 2.9-20.8-13.1-40.1-18.7-66.7-19.3-24.3-0.5-51.1 3.7-79.7 8.2-31.5 4.9-64.1 10-98.7 10-76.8 0-139.7-26.5-195.7-82.9-55.9 66.5-117.1 97.7-190.9 97.7zm-197.5-77.2q3.7 0 7.3 0.1c31.9 0.9 63.6 7.5 94.3 14 33.1 7 64.4 13.6 95.9 13.6 84.3 0 134.8-54 169.4-101.1 4.5-6.1 11.5-9.8 19-10.1 7.6-0.2 14.9 2.9 19.8 8.7 66.4 77.7 130.2 87.6 178.4 87.6 30.7 0 61.4-4.7 91-9.4 29-4.5 56.4-8.7 83.3-8.7q2.6 0 5.1 0c13.9 0.3 26.7 1.7 38.8 4.5-2-12.8-2.8-26.4-2.4-40.9 0.9-31.9 7.6-63.6 14.1-94.3 9.6-45.8 18.7-89 10.1-132.4-9.7-48.8-40.7-91-97.6-132.9-6.1-4.5-9.8-11.5-10.1-19.1-0.3-7.5 2.9-14.8 8.6-19.7 106.2-90.7 92-181.6 78.3-269.5-4.8-30.7-9.3-59.8-8.8-88.3 0.3-13.9 1.8-26.7 4.5-38.8q-15.9 2.5-33.6 2.5-3.6 0-7.3-0.1c-31.8-0.9-63.6-7.6-94.3-14.1-33.1-6.9-64.4-13.5-95.9-13.5-84.3 0-134.8 54-169.4 101-4.4 6.1-11.5 9.8-19 10.1-7.6 0.2-14.8-2.9-19.7-8.6-66.4-77.7-130.3-87.7-178.5-87.7-30.7 0-61.4 4.8-91 9.4-29 4.5-56.4 8.8-83.3 8.8q-2.6 0-5.1-0.1c-13.8-0.2-26.6-1.7-38.7-4.4 1.9 12.8 2.7 26.4 2.3 40.9-0.9 31.8-7.5 63.6-14 94.2-9.7 45.8-18.8 89.1-10.2 132.5 9.7 48.8 40.7 91 97.7 132.9 6.1 4.4 9.8 11.4 10.1 19 0.2 7.6-3 14.8-8.7 19.7-106.1 90.7-92 181.6-78.2 269.5 4.8 30.8 9.3 59.9 8.7 88.4-0.3 13.8-1.7 26.6-4.5 38.7 10.7-1.6 21.8-2.4 33.6-2.4z"/>
		<path id="Layer" fill-rule="evenodd" class="s0" d="m1052 4001.7c-10.6 0-20.7-1.2-30.4-2.4-9.9-1.2-19.1-2.3-29.2-2.3-8.9 0-17.3 0.9-25.9 2.7-8.8 1.9-18-1.1-23.9-7.9-5.9-6.8-7.7-16.2-4.6-24.7 5-13.8 4.8-25.7 4.5-40.7-0.3-16.7-0.6-35.7 5.6-60.6 13.9-55.1 54.8-109.2 110.4-148.1-56.5-35-112.1-91.7-121.2-162.6-2.2-16.8-0.4-31.9 1.4-46.4 2.1-17.4 4.1-33.9-0.5-55.1-1.8-8.8 1.2-17.9 8-23.8 6.8-5.9 16.2-7.7 24.7-4.7 10.6 3.9 19.9 4.7 31.3 4.7q4.6 0 9.4-0.2c3.6 0 7.2-0.1 11-0.1 13.2 0 29.4 0.7 49.6 5.8 55.1 13.8 109.2 54.7 148.1 110.4 35-56.6 91.7-112.2 162.6-121.3 5.1-0.6 10.3-1 15.9-1 10.7 0 20.7 1.2 30.5 2.4 9.8 1.2 19.1 2.3 29.2 2.3 8.8 0 17.3-0.9 25.9-2.7 8.8-1.9 17.9 1.2 23.8 7.9 5.9 6.8 7.7 16.3 4.7 24.7-5 13.8-4.8 25.7-4.6 40.7 0.3 16.8 0.7 35.7-5.6 60.7-13.8 55.1-54.7 109.2-110.4 148.1 56.6 35 112.2 91.7 121.3 162.5 2.1 16.9 0.3 31.9-1.4 46.4-2.2 17.5-4.2 34 0.4 55.1 1.9 8.8-1.2 18-7.9 23.9-6.8 5.9-16.3 7.7-24.7 4.6-10.7-3.9-19.9-4.6-31.3-4.6-3.1 0-6.3 0-9.4 0.1-3.6 0.1-7.3 0.1-11 0.1-13.2 0-29.4-0.7-49.7-5.7-55.1-13.9-109.2-54.8-148.1-110.5-35 56.6-91.7 112.2-162.5 121.3-5.2 0.7-10.4 1-16 1zm-59.6-54.2c13.1 0 24.8 1.4 35.1 2.7 8.7 1 16.9 2 24.5 2 3.5 0 6.6-0.2 9.7-0.6 63-8.1 118.2-72.3 144.8-132.4 3.9-8.7 12.4-14.4 21.9-14.7 9.6-0.3 18.4 5 22.8 13.5 32.2 62.8 85.6 110.3 139.5 123.8 19.8 5 34.2 4.4 47.7 4.2 7.3-0.2 14.3-0.3 21.9 0.2 0-13.5 1.4-25.3 2.7-35.7 1.5-12.6 2.8-23.4 1.5-34.2-8.1-63-72.4-118.2-132.4-144.8-8.7-3.9-14.5-12.4-14.7-21.9-0.3-9.6 4.9-18.4 13.4-22.8 62.9-32.2 110.3-85.6 123.9-139.5 4.6-18.6 4.4-32.7 4.1-47.7-0.1-7.1-0.2-14.4 0.2-21.9-13.3 0.1-25.2-1.4-35.7-2.7-8.7-1.1-16.8-2.1-24.5-2.1q-5.1 0-9.6 0.6c-63.1 8.1-118.2 72.4-144.9 132.4-3.8 8.7-12.4 14.5-21.9 14.7-9.6 0.3-18.4-5-22.7-13.4-32.2-62.9-85.7-110.4-139.5-123.9-19.9-4.9-34.2-4.4-47.7-4.1-7.4 0.1-14.4 0.2-22-0.2 0 13.5-1.4 25.3-2.7 35.7-1.5 12.5-2.8 23.4-1.4 34.1 8.1 63.1 72.3 118.2 132.4 144.9 8.7 3.8 14.4 12.4 14.7 21.9 0.2 9.5-5 18.4-13.5 22.7-62.9 32.2-110.3 85.7-123.8 139.5-4.7 18.6-4.4 32.8-4.2 47.7 0.1 7.2 0.3 14.4-0.2 22q0.3 0 0.6 0z"/>
		<path id="Layer" fill-rule="evenodd" class="s0" d="m1225.4 4751c-140.2 0-276.2-27.5-404.2-81.6-123.7-52.3-234.7-127.2-330.1-222.6-95.3-95.3-170.2-206.4-222.5-330-54.2-128.1-81.6-264.1-81.6-404.2 0-140.2 27.4-276.2 81.6-404.2 52.3-123.7 127.2-234.8 222.5-330.1 95.4-95.4 206.4-170.2 330.1-222.5 128-54.2 264-81.6 404.2-81.6 140.2 0 276.2 27.4 404.2 81.6 123.7 52.3 234.7 127.1 330.1 222.5 95.4 95.3 170.2 206.4 222.5 330.1 54.2 128 81.6 264 81.6 404.2 0 140.1-27.4 276.1-81.6 404.2-52.3 123.6-127.1 234.7-222.5 330-95.4 95.4-206.4 170.3-330.1 222.6-128 54.1-264 81.6-404.2 81.6zm0-2027.3c-133.5 0-263 26.1-384.9 77.7-117.8 49.8-223.5 121.1-314.3 211.9-90.9 90.8-162.2 196.6-212 314.4-51.5 121.9-77.7 251.4-77.7 384.9 0 133.5 26.2 263 77.7 384.9 49.8 117.7 121.1 223.5 212 314.3 90.8 90.9 196.5 162.2 314.3 212 121.9 51.5 251.4 77.7 384.9 77.7 133.5 0 263-26.2 384.9-77.7 117.8-49.8 223.6-121.1 314.4-212 90.8-90.8 162.1-196.6 211.9-314.3 51.6-121.9 77.7-251.4 77.7-384.9 0-133.5-26.1-263-77.7-384.9-49.8-117.8-121.1-223.6-211.9-314.4-90.8-90.8-196.6-162.1-314.4-211.9-121.9-51.6-251.4-77.7-384.9-77.7z"/>
	</g>
</svg>