<svg version="1.2" xmlns="http://www.w3.org/2000/svg" viewBox="0 0 5250 7425" width="5250" height="7425">
	<title>1_2-svg</title>
	<style>
		.s0 { fill: #d5a81a } 
	</style>
	<g id="Слой_x0020_1">
		<path id="Layer" fill-rule="evenodd" class="s0" d="m1281.5 4796.1c-14.3 0-25.8-11.6-25.8-25.8v-853.6c0-14.3 11.5-25.8 25.8-25.8 14.3 0 25.8 11.5 25.8 25.8v853.6c0 14.2-11.5 25.8-25.8 25.8z"/>
		<path id="Layer" fill-rule="evenodd" class="s0" d="m1281.5 3956.9c-0.7 0-1.5-0.1-2.2-0.1-2.9-0.3-71.6-6.7-145.9-45.2-100-51.9-162.1-137.1-179.8-246.5-6.3-39.2-9.7-85.5-13.4-134.6-4.1-56.2-8.5-114.3-17.4-163.6-17.6-97-50.5-164.9-50.9-165.7-4.3-8.7-3.2-19.2 2.7-27 6-7.7 15.8-11.5 25.4-9.6 3.3 0.5 81.3 16 167.5 73.5 79.8 53.2 181.9 153.9 215.6 331.9 11.3 60.2 18.8 127.9 22.2 201.4 4.1 91.3 2.1 157.7 2 160.5-0.2 7.1-3.3 13.7-8.6 18.4-4.8 4.2-10.9 6.6-17.2 6.6zm-342.1-726.7c11.3 31.3 24.7 75.3 34.2 127.4 9.5 52 13.9 111.5 18.2 169.1 3.5 47.9 6.9 93.2 12.9 130.2 15.1 93.9 66.4 164.2 152.4 208.8 38.4 19.9 75.1 30 99.1 35 0.2-27.8-0.1-73.3-2.5-126.9-3.3-71.1-10.5-136.4-21.4-194.2-13.4-70.9-39.8-134.2-78.4-188-30.8-43-69.5-80.1-115-110.5-37.1-24.8-72.5-40.9-99.5-50.9z"/>
		<path id="Layer" fill-rule="evenodd" class="s0" d="m1273.3 3956.9c-25.5 0-99.9-2.2-182.6-26.2-135.7-39.3-227.5-118.5-265.6-229-11.6-33.5-21.4-72.1-31.8-113-12.9-50.5-26.2-102.8-42.9-144.2-25.3-62.8-51.9-96.5-52.2-96.8-5.6-7.1-7.2-16.7-4.1-25.2 3.2-8.4 10.5-14.7 19.5-16.4 4.7-0.9 116.6-21.4 236.4 10.3 13.8 3.7 22 17.9 18.3 31.7-3.6 13.8-17.8 22-31.6 18.3-67.4-17.9-133.4-17.2-173.8-14.1 10.5 17.9 23.1 42.4 35.4 72.9 18.1 44.7 31.8 98.6 45.1 150.8 10.1 39.7 19.7 77.4 30.6 108.9 32.8 95.3 110.6 161.2 231 196.2 92.2 26.7 174.8 24.1 175.6 24.1 14.2-0.5 26.2 10.7 26.7 24.9 0.5 14.3-10.6 26.3-24.9 26.8-0.6 0-3.8 0-9.1 0z"/>
		<path id="Layer" fill-rule="evenodd" class="s0" d="m1289.8 3956.9c-5.4 0-8.6 0-9.2 0-14.3-0.5-25.4-12.5-24.9-26.8 0.5-14.2 12.5-25.4 26.7-24.9 1.4 0.1 84.9 2.4 176.9-24.5 119.7-35.1 197-100.9 229.8-195.8 10.8-31.5 20.4-69.2 30.6-108.9 13.2-52.2 27-106.1 45-150.8 12.3-30.5 24.9-55 35.4-72.9-40.3-3.1-106.4-3.8-173.8 14.1-13.8 3.7-28-4.5-31.6-18.3-3.7-13.8 4.5-28 18.3-31.7 119.8-31.7 231.8-11.2 236.5-10.3 8.9 1.7 16.3 8 19.4 16.5 3.1 8.5 1.6 18.1-4.1 25.2-0.3 0.2-26.9 33.9-52.2 96.7-16.7 41.4-30 93.7-42.9 144.2-10.4 40.9-20.2 79.5-31.8 113-38.1 110.5-129.9 189.7-265.5 229-82.7 24-157.2 26.2-182.6 26.2z"/>
		<path id="Layer" fill-rule="evenodd" class="s0" d="m1281.5 3956.9c-6.3 0-12.4-2.4-17.1-6.6-5.3-4.7-8.5-11.3-8.7-18.4-0.1-2.8-2.1-69.2 2.1-160.5 3.3-73.5 10.8-141.2 22.1-201.4 33.7-178 135.8-278.7 215.6-331.9 86.2-57.5 164.3-73 167.5-73.5 9.6-1.9 19.5 1.9 25.4 9.6 6 7.8 7 18.3 2.7 27.1-0.3 0.7-33.2 68.6-50.9 165.6-8.9 49.3-13.2 107.4-17.4 163.6-3.7 49.1-7.1 95.4-13.4 134.6-17.6 109.4-79.8 194.6-179.7 246.5-74.3 38.5-143.1 44.9-145.9 45.2-0.8 0-1.5 0.1-2.3 0.1zm342.1-726.7c-27.5 10.3-63.6 26.7-101.2 52-45.1 30.4-83.5 67.6-114.1 110.4-38.1 53.6-64.3 116.5-77.6 187-10.9 57.8-18.1 123.1-21.3 194.2-2.5 53.6-2.7 99.1-2.5 126.9 24.3-5.1 61.9-15.5 100.5-35.8 85.1-44.7 135.9-114.7 151-208 5.9-37 9.3-82.3 12.9-130.2 4.2-57.6 8.7-117.1 18.1-169.1 9.5-52.1 22.9-96 34.2-127.4z"/>
		<path id="Layer" fill-rule="evenodd" class="s0" d="m1081 3302.6c-2.8 0-5.6-0.5-8.5-1.5-13.4-4.7-20.6-19.4-15.9-32.9 21.4-61.5 85-110.8 144.4-150.8 40.2-27.3 55.5-77.2 55.7-77.7 3.9-13.8 18.3-21.6 32-17.7 13.7 3.9 21.6 18.3 17.6 32-0.8 2.8-20.1 68.1-76.4 106.2-52.3 35.3-108.1 77.9-124.5 125-3.7 10.7-13.7 17.4-24.4 17.4z"/>
		<path id="Layer" fill-rule="evenodd" class="s0" d="m1482 3302.6c-10.7 0-20.7-6.7-24.4-17.4-16.4-47.1-72.2-89.7-124.5-125-56.2-38.1-75.6-103.4-76.4-106.2-4-13.7 3.9-28.1 17.7-32 13.7-4 28 3.9 31.9 17.7 0.2 0.4 15.3 50.4 55.7 77.7 59.4 40 123 89.3 144.4 150.8 4.7 13.5-2.4 28.2-15.9 32.9-2.8 1-5.7 1.5-8.5 1.5z"/>
		<path id="Layer" fill-rule="evenodd" class="s0" d="m1279.5 4517c-7.1 0-13.9-2.8-18.8-8.1-6.2-6.5-8.5-15.9-6.1-24.6 2.2-8.1 56.3-201.4 149.7-323.1 42.3-55.3 117.5-108.1 183.9-154.7 33.8-23.7 65.7-46.1 89.3-66 67.5-56.8 118.8-133.8 119.3-134.5 6.2-9.4 17.9-13.7 28.7-10.6 10.9 3.2 18.4 13 18.7 24.3 0 3 1.1 72.7-30.5 173.6-28.9 92.4-92 229.9-228.4 360.7-130.6 125.2-293.6 161-300.4 162.4-1.8 0.4-3.6 0.6-5.4 0.6zm502.4-607.7c-20 22.9-44.2 48.1-71.1 70.7-25.3 21.4-58.1 44.5-92.9 68.8-63.3 44.5-135.1 94.9-172.6 143.8-61.2 79.8-105.6 196.8-126.8 260.4 54.8-18.7 150.7-59.4 231-136.3 157.4-150.8 212.9-311.2 232.4-407.4z"/>
		<path id="Layer" fill-rule="evenodd" class="s0" d="m1300.6 4480c-8.1 0-16.1-3.8-21.1-11-8.2-11.6-5.4-27.7 6.2-35.9 0.5-0.4 49.4-34.9 116.4-95.8 51.9-47 128.3-137.1 160.3-180.9 8.4-11.5 24.5-14.1 36.1-5.7 11.5 8.4 14 24.5 5.6 36.1-33.2 45.6-113 139.5-167.3 188.8-69.6 63.1-119.2 98.3-121.3 99.8-4.5 3.1-9.7 4.6-14.9 4.6z"/>
		<path id="Layer" fill-rule="evenodd" class="s0" d="m1515.3 3172.9c-1.8 0-3.6-0.2-5.4-0.6-14-2.9-22.9-16.6-19.9-30.6l25.5-119.5c3-13.9 16.7-22.8 30.7-19.9 13.9 3 22.8 16.7 19.8 30.7l-25.5 119.4c-2.6 12.2-13.3 20.5-25.2 20.5z"/>
		<path id="Layer" fill-rule="evenodd" class="s0" d="m1043.6 3177c-11.9 0-22.7-8.3-25.2-20.4l-25.5-119.5c-3-13.9 5.9-27.7 19.8-30.6 14-3 27.7 5.9 30.7 19.8l25.5 119.5c3 14-5.9 27.7-19.9 30.6-1.8 0.5-3.6 0.6-5.4 0.6z"/>
		<path id="Layer" fill-rule="evenodd" class="s0" d="m1283.5 4517c-1.8 0-3.6-0.2-5.3-0.6-6.9-1.4-169.9-37.2-300.4-162.4-136.5-130.8-199.6-268.3-228.5-360.7-31.5-100.9-30.5-170.6-30.4-173.6 0.2-11.3 7.7-21.1 18.6-24.3 10.9-3.1 22.5 1.2 28.7 10.6 0.5 0.7 51.9 77.7 119.3 134.5 23.6 19.9 55.5 42.3 89.3 66 66.4 46.6 141.6 99.4 184 154.7 89.9 117.3 143.4 301.1 149.2 321.5 0.9 2.6 1.4 5.5 1.4 8.5 0 14.2-11.4 25.7-25.5 25.8q-0.2 0-0.4 0zm-502.5-607.8c4.2 20.9 10.1 44.8 18.4 70.9 27.2 86 86.4 214.2 214.1 336.6 80.3 76.9 176.2 117.6 231 136.2-21.3-63.5-65.7-180.7-126.7-260.3-37.5-48.9-109.4-99.3-172.7-143.8-34.7-24.3-67.5-47.4-92.9-68.8-26.9-22.7-51.2-47.9-71.2-70.8z"/>
		<path id="Layer" fill-rule="evenodd" class="s0" d="m1262.4 4480c-5.2 0-10.3-1.5-14.9-4.6-2-1.5-51.7-36.7-121.3-99.8-54.3-49.3-134-143.2-167.3-188.8-8.4-11.6-5.9-27.7 5.7-36.1 11.5-8.4 27.7-5.8 36.1 5.7 31.9 43.8 108.3 133.9 160.2 180.9 67 60.9 115.9 95.4 116.4 95.8 11.6 8.2 14.5 24.3 6.2 36-5 7.1-13 10.9-21.1 10.9z"/>
		<path id="Layer" fill-rule="evenodd" class="s0" d="m1281.5 2979.6c-14.3 0-25.8-11.6-25.8-25.9v-81.8c0-14.2 11.5-25.8 25.8-25.8 14.3 0 25.8 11.6 25.8 25.8v81.8c0 14.3-11.5 25.9-25.8 25.9z"/>
		<path id="Layer" fill-rule="evenodd" class="s0" d="m1281.5 4796.1c-146.2 0-288.1-28.7-421.7-85.2-129-54.6-244.9-132.7-344.4-232.2-99.5-99.5-177.6-215.3-232.2-344.3-56.5-133.6-85.1-275.6-85.1-421.8 0-146.2 28.6-288.1 85.1-421.8 54.6-129 132.7-244.8 232.2-344.3 99.5-99.5 215.4-177.6 344.4-232.2 133.6-56.5 275.5-85.2 421.7-85.2 146.3 0 288.2 28.7 421.8 85.2 129 54.6 244.8 132.7 344.3 232.2 99.5 99.5 177.6 215.3 232.2 344.3 56.5 133.7 85.2 275.6 85.2 421.8 0 146.2-28.7 288.2-85.2 421.8-54.6 129-132.7 244.8-232.2 344.3-99.5 99.5-215.3 177.6-344.3 232.2-133.6 56.5-275.5 85.2-421.8 85.2zm0-2115.3c-139.3 0-274.4 27.3-401.6 81.1-122.9 52-233.2 126.3-328 221.1-94.7 94.7-169.1 205.1-221.1 328-53.8 127.2-81.1 262.3-81.1 401.6 0 139.3 27.3 274.4 81.1 401.6 52 122.9 126.4 233.2 221.1 328 94.8 94.7 205.1 169.1 328 221.1 127.2 53.8 262.3 81.1 401.6 81.1 139.3 0 274.4-27.3 401.6-81.1 122.9-52 233.2-126.4 328-221.1 94.7-94.8 169.1-205.1 221.2-328 53.7-127.2 81-262.3 81-401.6 0-139.3-27.3-274.4-81-401.6-52.1-122.9-126.5-233.3-221.2-328-94.8-94.8-205.1-169.1-328-221.1-127.2-53.8-262.3-81.1-401.6-81.1z"/>
	</g>
</svg>