<svg version="1.2" xmlns="http://www.w3.org/2000/svg" viewBox="0 0 5250 7425" width="5250" height="7425">
	<title>1_3-svg</title>
	<style>
		.s0 { fill: #d5a81a } 
	</style>
	<g id="Слой_x0020_1">
		<path id="Layer" fill-rule="evenodd" class="s0" d="m796.2 3874.7c-21 0-34.9-1.1-37-1.3-12.5-1.1-22.1-11.4-22.4-24-0.1-5.1-1.5-126.7 83.7-270.4 47.3-79.7 115.8-133.6 209.4-164.8 64.7-21.6 91.1-60.9 91.1-135.7 0-13.6 11-24.6 24.5-24.6 13.6 0 24.5 11 24.5 24.6 0 95.9-39.6 153.8-124.6 182.2-82 27.3-141.7 74.2-182.7 143.3-57.3 96.5-71.9 182.1-75.7 221.5 51.1 0.8 171.2-4.5 224.8-67.9 72.9-86.1 100.3-181.8 110.2-231.2 2.6-13.3 15.6-21.8 28.8-19.2 13.3 2.7 21.9 15.6 19.3 28.8-10.9 54-41 158.8-120.9 253.2-63.8 75.4-190.1 85.5-253 85.5z"/>
		<path id="Layer" fill-rule="evenodd" class="s0" d="m1572.8 3874.7c-62.8 0-189.2-10.1-253-85.5-81.4-96.2-105.4-192.8-116.4-257.2-2.3-13.3 6.7-26 20-28.3 13.3-2.2 26 6.7 28.3 20.1 6.4 37.4 23.4 136.7 105.5 233.8 53.6 63.3 173.6 68.7 224.7 67.9-3.9-39.5-18.7-125.5-75.6-221.5-41-69.1-100.8-116-182.7-143.3-85-28.4-124.6-86.3-124.6-182.2 0-13.6 11-24.6 24.5-24.6 13.6 0 24.5 11 24.5 24.6 0 74.8 26.4 114.1 91.1 135.7 93.6 31.2 162.1 85.1 209.4 164.8 85.2 143.7 83.8 265.3 83.7 270.4-0.2 12.6-9.9 22.9-22.4 24-2.1 0.2-16 1.3-37 1.3z"/>
		<path id="Layer" fill-rule="evenodd" class="s0" d="m1827.7 4285.8h-1286.4c-13.5 0-24.5-11-24.5-24.5 0-13.6 11-24.5 24.5-24.5h1286.4c13.5 0 24.5 10.9 24.5 24.5 0 13.5-11 24.5-24.5 24.5z"/>
		<path id="Layer" fill-rule="evenodd" class="s0" d="m933.5 4082c-8.7 0-17.2-4.7-21.6-12.9-6.4-11.9-1.9-26.8 10-33.2 74.8-40.2 114.1-140.7 120-307.2 0.5-13.6 11.8-24.2 25.4-23.7 13.5 0.5 24 11.9 23.6 25.4-3.4 92.5-16.3 165.3-39.6 222.5-24 58.7-59.7 101.1-106.2 126.2-3.6 2-7.7 2.9-11.6 2.9z"/>
		<path id="Layer" fill-rule="evenodd" class="s0" d="m1435.5 4082c-3.9 0-7.9-0.9-11.6-2.9-46.5-25.1-82.2-67.5-106.2-126.2-23.3-57.2-36.2-130-39.6-222.5-0.4-13.5 10.1-24.9 23.7-25.4 0.3 0 0.5 0 0.9 0 13.1 0 23.9 10.4 24.4 23.7 6 166.5 45.2 267 120 307.2 12 6.4 16.4 21.3 9.9 33.2-4.4 8.2-12.8 12.9-21.5 12.9z"/>
		<path id="Layer" fill-rule="evenodd" class="s0" d="m1197.4 4285.8h-355c-4.5 0-8.9-1.2-12.7-3.5-234.1-141.1-225.5-245.9-223.8-257.4 0.8-5.9 3.9-11.3 8.4-15.1 3.1-2.6 32.4-25.7 97.1-25.7 71.7 0 159.1 27.5 259.4 81.8 103.1 55.7 192.4 120.9 244.8 178.9 6.5 7.2 8.2 17.6 4.2 26.4-3.9 8.9-12.7 14.6-22.4 14.6zm-348.2-49h287.9c-49-42.8-115.3-87.7-189.6-127.8-64-34.6-157-75.8-236.1-75.8-27.4 0-45.5 5-55.7 9.2 2.1 9.5 7.3 24.9 20.5 45.1 38.7 59.4 114.2 113.4 173 149.3z"/>
		<path id="Layer" fill-rule="evenodd" class="s0" d="m1526.6 4285.8h-355c-9.7 0-18.5-5.7-22.4-14.6-3.9-8.8-2.3-19.2 4.2-26.4 52.5-58 141.7-123.2 244.8-178.9 100.4-54.3 187.6-81.8 259.5-81.8 64.5 0 93.8 23.1 97 25.7 4.6 3.8 7.5 9.2 8.5 15.1 1.7 11.5 10.2 116.3-223.9 257.4-3.8 2.3-8.2 3.5-12.7 3.5zm-294.8-49h288c58.7-35.9 134.2-89.9 173-149.3 13.2-20.2 18.4-35.6 20.5-45.1-10.2-4.2-28.3-9.2-55.6-9.2-79.2 0-172.2 41.2-236.2 75.8-74.3 40.1-140.6 85-189.7 127.8z"/>
		<path id="Layer" fill-rule="evenodd" class="s0" d="m1184.5 3309.9c-39 0-74.9-22.3-101.1-62.8-24.1-37.1-37.3-86.1-37.3-137.7 0-99.7 51.7-159.1 138.4-159.1 86.7 0 138.4 59.4 138.4 159.1 0 51.6-13.3 100.6-37.3 137.7-26.2 40.5-62.1 62.8-101.1 62.8zm0-310.6c-59.3 0-89.4 37-89.4 110.1 0 82.1 40.9 151.5 89.4 151.5 48.5 0 89.4-69.4 89.4-151.5 0-73.1-30.1-110.1-89.4-110.1z"/>
		<path id="Layer" fill-rule="evenodd" class="s0" d="m1184.5 4739.1c-138.7 0-273.2-27.2-400-80.7-122.3-51.8-232.2-125.9-326.5-220.2-94.4-94.4-168.5-204.3-220.3-326.6-53.6-126.7-80.7-261.3-80.7-400 0-138.7 27.1-273.3 80.7-400 51.8-122.3 125.9-232.2 220.3-326.6 94.3-94.4 204.2-168.4 326.5-220.2 126.8-53.6 261.3-80.8 400-80.8 138.7 0 273.3 27.2 400 80.8 122.4 51.8 232.2 125.8 326.6 220.2 94.3 94.4 168.4 204.3 220.2 326.6 53.6 126.7 80.7 261.3 80.7 400 0 138.7-27.1 273.3-80.7 400-51.8 122.3-125.9 232.2-220.2 326.6-94.4 94.3-204.2 168.4-326.6 220.2-126.7 53.5-261.3 80.7-400 80.7zm0-2006.1c-132.1 0-260.2 25.9-380.9 76.9-116.5 49.4-221.2 119.9-311 209.8-89.9 89.8-160.5 194.5-209.7 311-51 120.6-76.9 248.8-76.9 380.9 0 132.1 25.9 260.2 76.9 380.9 49.2 116.5 119.8 221.1 209.7 311 89.8 89.9 194.5 160.4 311 209.7 120.7 51 248.8 76.9 380.9 76.9 132.1 0 260.3-25.9 380.9-76.9 116.5-49.3 221.1-119.8 311-209.7 89.9-89.9 160.4-194.5 209.7-311 51-120.7 76.9-248.8 76.9-380.9 0-132.1-25.9-260.3-76.9-380.9-49.3-116.5-119.8-221.2-209.7-311-89.9-89.9-194.5-160.4-311-209.8-120.6-51-248.8-76.9-380.9-76.9z"/>
	</g>
</svg>