<svg version="1.2" xmlns="http://www.w3.org/2000/svg" viewBox="0 0 5250 7425" width="5250" height="7425">
	<title>1_4-svg</title>
	<style>
		.s0 { fill: #d5a81a } 
	</style>
	<g id="Слой_x0020_1">
		<path id="Layer" fill-rule="evenodd" class="s0" d="m725.9 4417.2q-1 0-2.1-0.1c-56.4-4.7-135.6-50.9-235.4-137.1-72.4-62.5-128.5-122.7-130.9-125.3-4.6-5-7-11.7-6.4-18.6 0.6-6.8 4-13.1 9.5-17.2 7.4-5.7 173-132 305.7-179.6-41.1-131.8-50.1-313.3-50.5-321.5-0.3-6.8 2.3-13.5 7.1-18.3 4.8-4.9 11.5-7.4 18.4-7.1 8.5 0.4 210.8 10.5 343.3 57.8 12.7 4.6 19.3 18.5 14.7 31.1-4.5 12.7-18.4 19.3-31.1 14.8-98.1-35.1-242.5-48.9-302-53.3 4.4 59.9 18.4 205.6 53.9 303.7 2.3 6.3 1.8 13.3-1.2 19.3-3.1 6-8.5 10.5-14.9 12.3-101.2 29.5-239.1 124.9-292 163.2 73.6 75.5 230.6 220.1 315.9 227.3 13.4 1.1 23.3 12.9 22.2 26.3-1.1 12.7-11.7 22.3-24.2 22.3z"/>
		<path id="Layer" fill-rule="evenodd" class="s0" d="m902.2 4127.5c-21.8 0-43.6-2.9-64.7-8.6-41.9-11.2-80.3-33.4-111.2-64.3-27-27-49-73-67.3-140.7-3.5-13 4.1-26.3 17.1-29.8 13-3.5 26.3 4.1 29.8 17.1 19.7 72.8 40.7 104.9 54.8 119 50 50 120.9 69.7 189.6 52.8 13-3.2 26.2 4.7 29.4 17.8 3.2 13-4.7 26.2-17.8 29.4-19.6 4.8-39.6 7.3-59.7 7.3z"/>
		<path id="Layer" fill-rule="evenodd" class="s0" d="m956.9 4120.6c-10.1 0-19.5-6.3-23-16.4-25.8-74.9-93.5-127.6-172.4-134.2-19-1.6-54.9 2.5-118.7 31.4-12.2 5.5-26.7 0.1-32.2-12.1-5.5-12.3-0.1-26.7 12.1-32.2 59.7-27.1 106.5-38.7 142.9-35.6 98.1 8.2 182.3 73.7 214.3 166.9 4.4 12.7-2.3 26.5-15 30.9-2.7 0.9-5.3 1.3-8 1.3z"/>
		<path id="Layer" fill-rule="evenodd" class="s0" d="m1649.2 4417.2c-12.5 0-23.1-9.6-24.2-22.3-1.1-13.4 8.8-25.2 22.2-26.3 85.4-7.2 242.4-151.8 315.9-227.3-52.8-38.3-190.7-133.7-292-163.2-6.4-1.8-11.8-6.3-14.9-12.3-3-6-3.4-13-1.2-19.3 35.6-98.2 49.5-243.8 54-303.7-59.6 4.4-204 18.2-302.1 53.3-12.7 4.5-26.6-2.1-31.1-14.8-4.5-12.6 2.1-26.5 14.7-31.1 132.5-47.3 334.8-57.4 343.4-57.8 6.8-0.4 13.5 2.2 18.3 7.1 4.9 4.8 7.4 11.5 7.1 18.3-0.4 8.2-9.4 189.7-50.5 321.5 132.8 47.6 298.4 173.9 305.8 179.6 5.4 4.1 8.8 10.4 9.4 17.2 0.6 6.9-1.8 13.6-6.4 18.6-2.4 2.6-58.5 62.8-130.9 125.3-99.8 86.2-179 132.4-235.4 137.1q-1 0.1-2.1 0.1z"/>
		<path id="Layer" fill-rule="evenodd" class="s0" d="m1472.9 4127.5c-20 0-40.1-2.5-59.7-7.3-13-3.2-21-16.4-17.8-29.4 3.2-13.1 16.4-21 29.4-17.8 68.8 16.9 139.6-2.8 189.6-52.8 14.1-14.1 35.1-46.2 54.8-119 3.5-13 16.9-20.7 29.8-17.1 13 3.5 20.7 16.8 17.2 29.8-18.4 67.7-40.4 113.7-67.4 140.7-30.8 30.8-69.3 53.1-111.1 64.3-21.2 5.7-43 8.6-64.8 8.6z"/>
		<path id="Layer" fill-rule="evenodd" class="s0" d="m1418.2 4120.6c-2.6 0-5.3-0.4-7.9-1.3-12.7-4.4-19.5-18.2-15.1-30.9 32.1-93.2 116.2-158.7 214.3-166.9 36.5-3.1 83.2 8.5 142.9 35.6 12.2 5.5 17.7 19.9 12.1 32.2-5.5 12.2-19.9 17.6-32.2 12.1-63.8-28.9-99.7-33-118.7-31.4-78.9 6.6-146.6 59.3-172.4 134.2-3.5 10.1-12.9 16.4-23 16.4z"/>
		<path id="Layer" fill-rule="evenodd" class="s0" d="m1186.1 3862.6c-29.2 0-57.1-16.1-76.6-44.1-18-25.8-27.9-59.6-27.9-95.3 0-69.7 39.1-111.4 104.5-111.4 65.4 0 104.5 41.7 104.5 111.4 0 35.7-9.9 69.5-27.9 95.3-19.5 28-47.4 44.1-76.6 44.1zm0-202.1c-38.1 0-55.8 19.9-55.8 62.7 0 49.2 25.5 90.7 55.8 90.7 30.2 0 55.8-41.5 55.8-90.7 0-42.8-17.7-62.7-55.8-62.7z"/>
		<path id="Layer" fill-rule="evenodd" class="s0" d="m839.2 4487.1c-42 0-78.9-16.8-101.7-47.7-26.5-36-27.7-82.4-3.1-121 49.9-78.4 133.4-93.4 200.4-105.4 29.7-5.3 57.7-10.3 73.2-19.9 8.5-5.3 36.9-33.1 45.4-167.9 3.7-59.9 1.9-116.8 0.9-139.1-22.9-21.4-86-87-96.4-166.6-24.9-190.4 58.7-267.7 114-318.8 23.2-21.5 41.5-38.5 43.5-55.4 2.3-20-19-44.3-26.7-51.2-10-9-10.8-24.3-1.9-34.3 9-10 24.3-10.9 34.3-2 4.9 4.4 48.2 44.4 42.6 93.1-4 34.8-30.6 59.4-58.8 85.5-53.6 49.6-120.3 111.3-98.8 276.8 10.1 76.9 86.9 142.3 87.7 142.9 5.1 4.3 8.2 10.5 8.6 17.2 0.2 3 4.5 75.5-0.5 155-7.1 114.6-29.5 182-68.2 206.1-23.4 14.5-54.4 20.1-90.3 26.5-60.7 10.9-129.5 23.2-167.9 83.6-13.6 21.3-13.1 46.6 1.2 66 7.1 9.6 34.9 39.8 95.7 23.3 40.8-11.1 104.9-56.9 166.8-101.3 81.8-58.6 159.1-114 217.6-120.7 13.4-1.6 25.4 8 27 21.4 1.5 13.3-8.1 25.4-21.4 26.9-46.1 5.3-125.1 62-194.9 111.9-68.4 49.1-133.1 95.4-182.4 108.8-15.7 4.2-31.1 6.3-45.9 6.3z"/>
		<path id="Layer" fill-rule="evenodd" class="s0" d="m1532.9 4487.1c-14.8 0-30.2-2.1-45.8-6.3-49.4-13.4-114-59.7-182.5-108.8-69.7-49.9-148.8-106.6-194.8-111.9-13.3-1.5-22.9-13.6-21.4-26.9 1.6-13.4 13.6-23 27-21.4 58.5 6.7 135.8 62.1 217.6 120.7 61.9 44.4 125.9 90.2 166.8 101.3 60.8 16.5 88.6-13.7 95.7-23.3 14.3-19.4 14.8-44.7 1.2-66-38.4-60.4-107.2-72.7-167.9-83.6-35.9-6.4-66.9-12-90.3-26.5-38.8-24.1-61.1-91.5-68.2-206.1-5-79.5-0.7-152-0.5-155 0.4-6.7 3.5-12.9 8.6-17.2 0.8-0.6 77.7-66.4 87.6-142.9 21.6-165.5-45.1-227.2-98.7-276.8-28.2-26.1-54.8-50.7-58.8-85.5-5.7-48.7 37.6-88.7 42.6-93.1 10-8.9 25.4-8 34.3 2 9 10.1 8.1 25.4-2 34.4-7.6 6.8-28.9 31.1-26.6 51.1 1.9 16.9 20.3 33.9 43.5 55.4 55.3 51.1 138.8 128.4 114 318.8-10.4 79.6-73.6 145.2-96.4 166.6-1 22.3-2.8 79.6 0.9 139.5 8.5 134.5 36.9 162.2 45.4 167.5 15.5 9.6 43.5 14.6 73.1 19.9 67.1 12 150.6 27 200.5 105.4 24.5 38.6 23.4 85-3.1 121-22.8 30.9-59.7 47.7-101.8 47.7z"/>
		<path id="Layer" fill-rule="evenodd" class="s0" d="m1187.6 4946.4c-137.8 0-271.4-26.9-397.2-80.2-121.6-51.4-230.7-124.9-324.4-218.6-93.7-93.8-167.3-202.9-218.7-324.4-53.2-125.8-80.2-259.5-80.2-397.2 0-137.7 27-271.4 80.2-397.2 51.4-121.5 125-230.7 218.7-324.4 93.7-93.7 202.8-167.2 324.4-218.6 125.8-53.2 259.4-80.3 397.2-80.3 137.7 0 271.3 27.1 397.2 80.3 121.5 51.4 230.6 124.9 324.3 218.6 93.7 93.7 167.3 202.9 218.7 324.4 53.2 125.8 80.2 259.5 80.2 397.2 0 137.7-27 271.4-80.2 397.2-51.4 121.5-125 230.6-218.7 324.4-93.7 93.7-202.8 167.2-324.3 218.6-125.9 53.3-259.5 80.2-397.2 80.2zm0-1992.2c-131.2 0-258.5 25.7-378.3 76.4-115.7 49-219.6 119-308.9 208.2-89.2 89.3-159.3 193.2-208.3 308.9-50.6 119.8-76.3 247.1-76.3 378.3 0 131.2 25.7 258.5 76.3 378.3 49 115.7 119.1 219.6 208.3 308.8 89.3 89.3 193.2 159.4 308.9 208.3 119.8 50.7 247.1 76.4 378.3 76.4 131.2 0 258.4-25.7 378.2-76.4 115.7-48.9 219.7-119 308.9-208.3 89.3-89.2 159.3-193.1 208.3-308.8 50.6-119.8 76.3-247.1 76.3-378.3 0-131.2-25.7-258.5-76.3-378.3-49-115.7-119-219.6-208.3-308.9-89.2-89.2-193.2-159.2-308.9-208.2-119.8-50.7-247-76.4-378.2-76.4z"/>
	</g>
</svg>