<svg version="1.2" xmlns="http://www.w3.org/2000/svg" viewBox="0 0 5250 7425" width="5250" height="7425">
	<title>1_5-svg</title>
	<style>
		.s0 { fill: #d5a81a } 
	</style>
	<g id="Слой_x0020_1">
		<path id="Layer" fill-rule="evenodd" class="s0" d="m1185.1 4210.1c-95.2 0-185.4-36.4-254-102.3-68.4-65.8-108.3-154.1-112.3-248.7-0.2-5.2-0.4-10.5-0.4-15.7 0-83.2 59-216.5 175.2-396.2 85.3-131.8 171.8-241.9 172.6-243 4.6-5.8 11.6-9.1 18.9-9.1 7.4 0 14.4 3.3 18.9 9.1 0.9 1.1 87.4 111.2 172.7 243 116.2 179.7 175.1 313 175.1 396.2q0 4.3-0.1 8.7c-2.2 96.1-41.4 186.1-110.2 253.4-68.9 67.4-159.9 104.6-256.4 104.6zm0-951.5c-29.9 39.3-90.9 121.7-151.3 215-138.2 213.8-167.2 319.1-167.2 369.8 0 4.5 0.1 9.1 0.2 13.7 3.5 82.2 38.2 158.9 97.6 216 59.6 57.3 138 88.8 220.7 88.8 83.8 0 162.9-32.2 222.8-90.8 59.8-58.5 93.8-136.6 95.7-220.1q0.1-3.8 0.1-7.6c0-50.7-29-156-167.2-369.8-60.4-93.3-121.5-175.7-151.4-215z"/>
		<path id="Layer" fill-rule="evenodd" class="s0" d="m1412.7 3870.4q-0.3 0-0.5 0c-13.3-0.4-23.8-11.4-23.5-24.7q0-2.4 0-4.8c0-96.3-160.6-321.4-222.5-399.9-8.2-10.5-6.4-25.6 4.1-33.8 10.4-8.2 25.5-6.4 33.7 4 0.6 0.7 58.3 74.2 115.2 162.1 78.1 120.7 117.7 210.7 117.7 267.6q0 3-0.1 6c-0.3 13.1-11 23.5-24.1 23.5z"/>
		<path id="Layer" fill-rule="evenodd" class="s0" d="m1185.1 4092.6c-65.3 0-127.2-25-174.4-70.2-46.9-45.2-74.3-105.8-77.1-170.7-0.1-3.6-0.2-7.3-0.2-10.8 0-13.3 10.8-24.1 24.1-24.1 13.3 0 24 10.8 24 24.1 0 2.9 0.1 5.8 0.2 8.7 2.2 52.5 24.4 101.6 62.4 138.1 38.1 36.6 88.2 56.8 141 56.8 13.3 0 24.1 10.7 24.1 24 0 13.3-10.8 24.1-24.1 24.1z"/>
		<path id="Layer" fill-rule="evenodd" class="s0" d="m1185.2 4557.3q-0.3 0-0.5 0c-175.9-0.2-343.6-75.9-460.1-207.9q-3.7-4.1-7.3-8.3c-94.4-110.9-146.4-252.2-146.4-398.1 0-10.5 6.8-19.8 16.9-22.9 10-3.2 20.9 0.6 26.9 9.2 0.7 1 66.3 94.7 149.4 157.8 36.2 27.6 82.7 46.5 131.9 66.5 49.2 20 105 42.8 159 77.8 97 63.1 133.8 142.4 147.5 197.9 7.9 31.9 9.3 59.8 8.9 79.3 141.3-6.4 273.3-64.5 374-165.3 107-106.9 165.8-249 165.8-400.3 0-13.2 10.8-24 24.1-24 13.3 0 24.1 10.8 24.1 24 0 164.1-63.9 318.3-179.9 434.4-115.9 115.9-270 179.7-433.9 179.9q-0.2 0-0.4 0zm-561.1-538.4c14.5 107 59.3 208.2 129.9 291q3.3 3.9 6.6 7.7c102.7 116.2 248.4 185.1 402.6 191.1 0.5-16.3-0.5-41.2-7.9-70-17.4-67.5-59.9-123.6-126.5-166.9-50.1-32.6-101.4-53.5-151-73.6-52.2-21.3-101.5-41.3-142.9-72.8-43.8-33.3-82.5-73.6-110.8-106.5z"/>
		<path id="Layer" fill-rule="evenodd" class="s0" d="m911.7 4449.2c-25.2 0-51.2-1.7-76.6-6-13.1-2.2-22-14.6-19.8-27.7 2.2-13.1 14.6-21.9 27.7-19.7 83.7 13.9 174.6-2.6 221.4-13.7 12.9-3.1 25.9 4.9 28.9 17.8 3.1 12.9-4.9 25.9-17.8 29-36.4 8.6-97.8 20.3-163.8 20.3z"/>
		<path id="Layer" fill-rule="evenodd" class="s0" d="m1069.9 4429.5q-0.1 0-0.2 0c-13.2-0.1-23.9-10.9-23.8-24.2 0-0.7-0.4-37.9-22.5-82.1-29.5-59.1-82.2-102.5-156.7-129.1-12.5-4.5-19.1-18.3-14.6-30.8 4.5-12.5 18.2-19 30.7-14.6 109.3 39.1 160.9 106.1 184.9 155.5 26.4 54.2 26.3 99.6 26.3 101.5-0.1 13.2-10.9 23.8-24.1 23.8z"/>
		<path id="Layer" fill-rule="evenodd" class="s0" d="m827.5 4353.4c-27.9 0-57.8-1.5-89.6-4.6-13.2-1.2-22.9-13-21.7-26.2 1.3-13.2 13-22.9 26.3-21.7 66.7 6.4 124.1 5.8 170.4-1.9 13.1-2.1 25.5 6.8 27.6 19.9 2.2 13.1-6.7 25.5-19.8 27.6-27.8 4.6-59 6.9-93.2 6.9z"/>
		<path id="Layer" fill-rule="evenodd" class="s0" d="m916.8 4346.8q-0.4 0-0.8 0c-13.2-0.4-23.6-11.5-23.2-24.7 0-0.3 0.2-18.9-7.6-45.9-10.5-36-29.9-69.3-57.5-98.9-9-9.7-8.5-24.9 1.2-34 9.7-9.1 25-8.5 34 1.2 80.1 85.9 78.1 175.3 77.9 179.1-0.4 13-11.1 23.2-24 23.2z"/>
		<path id="Layer" fill-rule="evenodd" class="s0" d="m1185.2 4557.3c-8.5 0-16.7-4.5-21.1-12.4-0.4-0.8-44.4-78.7-108.2-121.3-25.1-16.7-57.4-34.3-91.6-52.9-143.2-78-339.3-184.8-392.8-422.4-2.9-12.9 5.2-25.8 18.2-28.7 12.9-2.9 25.8 5.2 28.7 18.2 21.5 95.5 70.5 176.3 149.7 247.1 69.2 61.8 148.9 105.2 219.2 143.5 35.2 19.2 68.4 37.3 95.3 55.2 73.7 49.1 121.6 134.3 123.6 137.9 6.4 11.6 2.2 26.3-9.4 32.7-3.7 2.1-7.7 3.1-11.6 3.1z"/>
		<path id="Layer" fill-rule="evenodd" class="s0" d="m1185.1 4557.3c-164 0-318.3-63.9-434.3-179.9-116-116.1-179.9-270.3-179.9-434.4 0-13.2 10.8-24 24.1-24 13.2 0 24 10.8 24 24 0 151.3 58.9 293.4 165.8 400.3 100.8 100.8 232.7 158.9 374.1 165.3-0.5-19.5 0.9-47.4 8.8-79.3 13.8-55.5 50.5-134.8 147.6-197.9 53.9-35 109.8-57.8 159-77.8 49.2-20 95.6-38.9 131.9-66.5 83.1-63.1 148.7-156.8 149.3-157.8 6-8.6 17-12.4 27-9.2 10 3.1 16.9 12.4 16.9 22.9 0 145.9-52 287.2-146.5 398.1q-3.5 4.2-7.2 8.3c-116.6 132.1-284.5 207.9-460.6 207.9zm561-538.4c-28.3 32.9-66.9 73.2-110.8 106.5-41.3 31.5-90.6 51.5-142.9 72.8-49.5 20.1-100.8 41-150.9 73.6-66.6 43.3-109.2 99.4-126.5 166.9-7.4 28.8-8.4 53.7-7.9 70 154.2-6 299.9-74.9 402.5-191.1q3.4-3.8 6.7-7.7c70.5-82.8 115.4-184 129.8-291z"/>
		<path id="Layer" fill-rule="evenodd" class="s0" d="m1458.5 4449.2c-66 0-127.4-11.7-163.7-20.3-12.9-3.1-20.9-16.1-17.9-29 3.1-12.9 16.1-20.9 29-17.8 46.8 11.1 137.7 27.6 221.4 13.7 13.1-2.2 25.5 6.6 27.7 19.7 2.2 13.1-6.7 25.5-19.8 27.7-25.5 4.3-51.4 6-76.7 6z"/>
		<path id="Layer" fill-rule="evenodd" class="s0" d="m1300.3 4429.5c-13.1 0-23.9-10.6-24-23.8 0-1.9-0.1-47.3 26.3-101.5 24-49.4 75.6-116.4 184.8-155.5 12.5-4.4 26.3 2.1 30.8 14.6 4.4 12.5-2.1 26.3-14.6 30.8-178.5 63.7-179.2 209.7-179.2 211.1 0.1 13.3-10.6 24.2-23.8 24.3q-0.2 0-0.3 0z"/>
		<path id="Layer" fill-rule="evenodd" class="s0" d="m1542.8 4353.4c-34.3 0-65.4-2.3-93.2-6.9-13.1-2.1-22-14.5-19.9-27.6 2.2-13.1 14.6-22 27.7-19.9 46.3 7.7 103.7 8.3 170.4 1.9 13.2-1.2 25 8.5 26.2 21.7 1.3 13.2-8.4 25-21.6 26.2-31.8 3.1-61.7 4.6-89.6 4.6z"/>
		<path id="Layer" fill-rule="evenodd" class="s0" d="m1453.5 4346.9c-13 0-23.6-10.3-24.1-23.3-0.1-3.8-2.1-93.2 78-179.1 9-9.7 24.2-10.3 34-1.2 9.7 9.1 10.2 24.3 1.1 34-27.6 29.6-46.9 62.9-57.4 98.9-7.9 27.1-7.6 45.7-7.6 45.9 0.5 13.3-9.9 24.3-23.2 24.8q-0.4 0-0.8 0z"/>
		<path id="Layer" fill-rule="evenodd" class="s0" d="m1185.1 4557.3c-3.9 0-7.9-1-11.6-3.1-11.7-6.4-15.8-21.1-9.4-32.7 2-3.6 49.9-88.8 123.6-137.9 26.9-17.9 60.1-36 95.2-55.2 70.4-38.3 150.1-81.7 219.3-143.5 79.2-70.8 128.1-151.6 149.6-247.1 2.9-13 15.8-21.1 28.8-18.2 12.9 2.9 21.1 15.8 18.2 28.7-53.5 237.6-249.7 344.4-392.9 422.4-34.1 18.6-66.4 36.2-91.5 52.9-64.1 42.7-107.8 120.5-108.2 121.3-4.4 7.9-12.6 12.4-21.1 12.4z"/>
		<path id="Layer" fill-rule="evenodd" class="s0" d="m1185.1 4912.7c-136.2 0-268.3-26.6-392.7-79.3-120.1-50.8-228-123.5-320.6-216.2-92.7-92.6-165.4-200.5-216.2-320.6-52.7-124.4-79.3-256.5-79.3-392.7 0-136.2 26.6-268.3 79.3-392.7 50.8-120.2 123.5-228.1 216.2-320.7 92.6-92.7 200.5-165.4 320.6-216.2 124.4-52.6 256.5-79.3 392.7-79.3 136.2 0 268.3 26.7 392.7 79.3 120.2 50.8 228.1 123.5 320.7 216.2 92.7 92.6 165.4 200.5 216.2 320.7 52.6 124.4 79.3 256.5 79.3 392.7 0 136.2-26.7 268.3-79.3 392.7-50.8 120.1-123.5 228-216.2 320.6-92.6 92.7-200.5 165.4-320.7 216.2-124.4 52.7-256.5 79.3-392.7 79.3zm0-1969.6c-129.7 0-255.5 25.4-373.9 75.5-114.4 48.4-217.2 117.7-305.4 205.9-88.3 88.3-157.5 191-205.9 305.4-50.1 118.4-75.5 244.3-75.5 374 0 129.7 25.4 255.5 75.5 373.9 48.4 114.4 117.6 217.2 205.9 305.4 88.2 88.3 191 157.5 305.4 205.9 118.4 50.1 244.2 75.5 373.9 75.5 129.7 0 255.6-25.4 374-75.5 114.4-48.4 217.2-117.6 305.4-205.9 88.2-88.2 157.5-191 205.9-305.4 50.1-118.4 75.5-244.2 75.5-373.9 0-129.7-25.4-255.6-75.5-374-48.4-114.4-117.7-217.1-205.9-305.4-88.2-88.2-191-157.5-305.4-205.9-118.4-50.1-244.3-75.5-374-75.5z"/>
	</g>
</svg>