<svg version="1.2" xmlns="http://www.w3.org/2000/svg" viewBox="0 0 5250 7425" width="5250" height="7425">
	<title>1_6-svg</title>
	<style>
		.s0 { fill: #d5a81a } 
	</style>
	<g id="Слой_x0020_1">
		<path id="Layer" fill-rule="evenodd" class="s0" d="m1074.9 4373.4c-2.3 0-4.5-0.3-6.7-0.9-12.7-3.7-20.1-17-16.4-29.7 0.7-2.4 68.5-239.8 44.4-349.8-3.3-15.1-7.9-29.3-13.8-42.7-2.4 13.4-4.2 21.8-4.4 22.9-0.5 2.4-1.4 4.7-2.6 6.7-15.8 49-52.8 110.9-140 139.8-65 21.6-154.6 23.9-266.4 6.9-82-12.5-144.8-30.8-147.4-31.6-7.6-2.2-13.6-7.9-16-15.4-2.5-7.5-1.2-15.7 3.5-21.9 1.7-2.2 41.1-54.5 99.4-113.6 79.4-80.4 152.6-132.2 217.5-153.7 48.2-16 95.2-16.4 139.5-1.1 14.9 4.7 41.3 14.7 69.5 33.7 4.7 3.2 9.4 6.5 13.8 9.9 0.7-10.6 1.1-21.3 1.1-31.9 0.2-27.5-1.6-53.5-4.8-77.7q-9.3 3.9-18.6 7.3c-90.3 33.1-176 34.9-247.6 5.4-150.5-62.1-272.7-300.8-277.8-310.9-3.5-6.9-3.5-15 0.1-21.9 3.6-6.8 10.2-11.5 17.8-12.6 2.7-0.4 67.5-9.7 150.5-10.4 113.1-1 201.5 14 262.7 44.5 32.1 16 58.5 37.4 78.3 63.4l0.2 0.1q1.6 1.6 2.9 3.4c2.4 3.5 43.4 62.7 67.3 161.4 50.3-28.1 99.4-66.3 143.4-113.2 78.1-83.4 85.6-174.6 86-181.6-0.4-146.2-143.7-354.8-145.2-356.9-7.5-10.9-4.9-25.9 6-33.4 10.9-7.5 25.8-4.8 33.4 6 1.6 2.3 38.7 56.1 76.4 130.1 51.4 100.7 77.4 186.5 77.4 254.9q0 0.5 0 1c-0.2 4.6-6.2 113.5-99 212.6-49.7 53-108 97.6-168.7 129.5 4.8 30.4 7.5 63.7 7.3 99.4-0.2 25.4-2.1 51.3-4.7 75 24.2 30.4 41.1 66.3 49.9 106.4 26.6 121.8-42.3 363.1-45.2 373.3-3.1 10.5-12.6 17.3-23 17.3zm-504.8-315.2c72.9 17.6 242.9 51.7 350.2 16 56.9-18.9 94.2-57.1 110.9-113.5q0.4-1.5 1-2.8c2-10.4 6.8-35.3 10.9-66.2q-14.9-15.3-33.3-27.9c-24.3-16.5-47-25.1-58.7-28.7l-9.5-2.6q-2-0.6-3.8-1.5c-30.7-7.9-63.1-6.3-96.7 4.9-107.4 35.6-223.2 164.6-271 222.3zm-9.5-624.2c13.5 23.5 34.4 58 60.5 94.4 60.6 84.3 121.5 140.7 176 163.2 68.4 28.2 154.2 20.6 239.4-16.6-19.5-87.6-54.3-143.9-61-154.1q-1.2-1.2-2.1-2.5c-15.5-20.7-36.6-37.8-62.7-50.8-101.7-50.7-276.2-40.7-350.1-33.6z"/>
		<path id="Layer" fill-rule="evenodd" class="s0" d="m1294.8 4373.4c-10.5 0-20.1-6.8-23.1-17.3-2.9-10.2-71.8-251.5-45.2-373.3 8.8-40.1 25.7-76 49.9-106.4-2.6-23.7-4.5-49.6-4.7-75-0.3-35.7 2.5-69 7.3-99.4-60.8-31.9-119-76.5-168.7-129.5-92.9-99.1-98.8-208-99-212.6q0-0.5 0-1c0-68.4 26-154.2 77.4-254.9 37.6-74 74.8-127.8 76.4-130.1 7.5-10.8 22.5-13.5 33.3-6 10.9 7.5 13.6 22.5 6.1 33.4-1.4 2.1-144.8 210.6-145.3 356.9 0.5 6.7 8.4 98.7 86.1 181.6 43.9 46.9 93 85.1 143.4 113.2 24-98.7 64.8-157.9 67.3-161.4 0.8-1.2 1.8-2.4 3-3.4v-0.1c19.9-26 46.3-47.4 78.5-63.4 61.2-30.5 149.5-45.5 262.6-44.5 83 0.7 147.7 10 150.5 10.4 7.6 1.1 14.3 5.8 17.8 12.6 3.5 6.9 3.6 15 0.1 21.9-5.1 10.1-127.3 248.8-277.7 310.9-71.7 29.5-157.4 27.7-247.8-5.4q-9.3-3.4-18.6-7.3c-3.2 24.2-5 50.2-4.8 77.7 0.1 10.6 0.5 21.3 1.2 31.9 4.5-3.4 9-6.7 13.8-9.9 28.2-19 54.6-29 69.5-33.7 44.2-15.3 91.2-14.9 139.5 1.1 64.9 21.5 138.1 73.3 217.5 153.7 58.3 59.1 97.7 111.4 99.3 113.6 4.7 6.2 6.1 14.4 3.6 21.9-2.5 7.5-8.5 13.2-16 15.4-2.6 0.8-65.4 19.1-147.5 31.6-111.8 17-201.4 14.7-266.2-6.9-87.3-28.9-124.4-90.8-140.1-139.8-1.2-2-2.1-4.3-2.6-6.7-0.2-1.1-2-9.5-4.5-22.9-5.8 13.4-10.4 27.6-13.8 42.7-24 110 43.8 347.4 44.5 349.8 3.6 12.7-3.7 26-16.4 29.7-2.2 0.6-4.5 0.9-6.6 0.9zm42.6-415.5q0.6 1.3 1 2.8c16.6 56.4 54 94.6 110.9 113.5 107.4 35.7 277.4 1.6 350.2-16-47.9-57.7-163.7-186.7-271-222.3-33.6-11.2-66.1-12.8-96.6-4.9-1.3 0.6-2.6 1.1-4 1.5l-9.4 2.6c-11.8 3.7-34.5 12.2-58.7 28.7-12.3 8.4-23.4 17.7-33.2 27.9 4 31 8.7 55.9 10.8 66.2zm-4.4-282.9c85.3 37.2 171.1 44.8 239.5 16.6 104.5-43.1 199.2-192.5 236.5-257.6-74-7.1-248.5-17.1-350.2 33.6-26 13-47.1 30.1-62.6 50.8q-1 1.3-2.1 2.5c-6.7 10.2-41.5 66.4-61.1 154.1z"/>
		<path id="Layer" fill-rule="evenodd" class="s0" d="m1184.8 3631.5c-13.3 0-24-10.7-24-23.9v-402.2c0-13.3 10.7-24 24-24 13.2 0 24 10.7 24 24v402.2c0 13.2-10.8 23.9-24 23.9z"/>
		<path id="Layer" fill-rule="evenodd" class="s0" d="m1184.8 3431.5c-6.4 0-12.4-2.5-16.9-7l-69.7-69.6c-9.4-9.4-9.4-24.6 0-33.9 9.3-9.4 24.5-9.4 33.9 0l52.7 52.7 52.6-52.7c9.4-9.4 24.6-9.4 33.9 0 9.4 9.3 9.4 24.5 0 33.9l-69.5 69.6c-4.5 4.5-10.7 7-17 7z"/>
		<path id="Layer" fill-rule="evenodd" class="s0" d="m1310.9 3709.8c-8.8 0-17.3-4.9-21.5-13.3-5.9-11.8-1-26.2 10.8-32.1l360.3-178.8c11.8-5.9 26.3-1 32.1 10.8 5.9 11.9 1 26.3-10.8 32.2l-360.3 178.7c-3.4 1.7-7 2.5-10.6 2.5z"/>
		<path id="Layer" fill-rule="evenodd" class="s0" d="m1583.3 3652.4c-2.5 0-5.1-0.4-7.6-1.3l-93.3-31.4c-6-2-11-6.4-13.8-12.1-2.9-5.7-3.3-12.3-1.3-18.3l31.4-93.3c4.2-12.5 17.9-19.3 30.4-15.1 12.6 4.3 19.3 17.8 15.1 30.4l-23.8 70.6 70.6 23.8c12.6 4.2 19.3 17.8 15.1 30.3-3.4 10-12.7 16.4-22.8 16.4z"/>
		<path id="Layer" fill-rule="evenodd" class="s0" d="m1675.3 4050.7c-2.9 0-5.8-0.6-8.7-1.7l-374.7-146c-12.3-4.8-18.4-18.7-13.6-31 4.7-12.4 18.6-18.5 31-13.7l374.7 146.1c12.4 4.8 18.5 18.7 13.7 31-3.7 9.5-12.8 15.3-22.4 15.3z"/>
		<path id="Layer" fill-rule="evenodd" class="s0" d="m1526.6 4067.4c-9.3 0-18.1-5.3-22-14.3l-39.6-90.2c-2.6-5.8-2.7-12.4-0.4-18.3 2.3-5.9 6.9-10.7 12.7-13.3l90.2-39.6c12.1-5.3 26.2 0.2 31.6 12.3 5.3 12.2-0.2 26.3-12.3 31.6l-68.3 30 30 68.2c5.3 12.1-0.2 26.3-12.3 31.6-3.2 1.4-6.4 2-9.6 2z"/>
		<path id="Layer" fill-rule="evenodd" class="s0" d="m1058.3 3709.8c-3.7 0-7.3-0.8-10.7-2.5l-360.2-178.7c-12-5.9-16.8-20.3-10.9-32.2 5.9-11.8 20.3-16.7 32.2-10.8l360.2 178.8c11.9 5.9 16.7 20.3 10.8 32.1-4.2 8.4-12.7 13.3-21.4 13.3z"/>
		<path id="Layer" fill-rule="evenodd" class="s0" d="m785.8 3652.4c-10 0-19.3-6.4-22.7-16.4-4.3-12.5 2.5-26.1 15-30.3l70.6-23.8-23.8-70.6c-4.2-12.6 2.6-26.1 15.1-30.4 12.6-4.2 26.1 2.6 30.4 15.1l31.4 93.3c2 6 1.6 12.6-1.2 18.3-2.9 5.7-7.8 10.1-13.8 12.1l-93.4 31.4c-2.5 0.9-5.1 1.3-7.6 1.3z"/>
		<path id="Layer" fill-rule="evenodd" class="s0" d="m693.8 4050.7c-9.6 0-18.6-5.8-22.3-15.3-4.8-12.3 1.3-26.2 13.6-31l374.7-146.1c12.3-4.8 26.3 1.3 31.1 13.7 4.8 12.3-1.3 26.2-13.7 31l-374.7 146c-2.8 1.1-5.8 1.7-8.7 1.7z"/>
		<path id="Layer" fill-rule="evenodd" class="s0" d="m842.6 4067.4c-3.2 0-6.5-0.6-9.6-2-12.1-5.3-17.7-19.5-12.3-31.6l29.9-68.2-68.2-30c-12.1-5.3-17.6-19.4-12.3-31.6 5.3-12.1 19.4-17.6 31.6-12.3l90.2 39.6c5.8 2.6 10.3 7.4 12.6 13.3 2.3 5.9 2.2 12.5-0.4 18.3l-39.5 90.2c-4 9-12.8 14.3-22 14.3z"/>
		<path id="Layer" fill-rule="evenodd" class="s0" d="m1184.8 4717.7c-135.7 0-267.3-26.5-391.3-79-119.7-50.6-227.2-123.1-319.5-215.4-92.3-92.3-164.8-199.8-215.5-319.5-52.4-123.9-79-255.6-79-391.3 0-135.7 26.6-267.3 79-391.3 50.7-119.7 123.2-227.2 215.5-319.5 92.3-92.3 199.8-164.8 319.5-215.4 124-52.4 255.6-79 391.3-79 135.7 0 267.4 26.6 391.3 79 119.7 50.6 227.2 123.1 319.5 215.4 92.3 92.3 164.8 199.8 215.4 319.5 52.4 124 79 255.6 79 391.3 0 135.7-26.6 267.4-79 391.3-50.6 119.7-123.1 227.2-215.4 319.5-92.3 92.3-199.8 164.8-319.5 215.4-123.9 52.5-255.6 79-391.3 79zm0-1962.5c-129.3 0-254.6 25.3-372.7 75.2-113.9 48.2-216.3 117.3-304.2 205.2-88 87.9-157 190.3-205.2 304.3-49.9 118-75.2 243.4-75.2 372.6 0 129.3 25.3 254.6 75.2 372.6 48.2 114 117.2 216.4 205.2 304.3 87.9 87.9 190.3 157 304.2 205.2 118.1 49.9 243.4 75.2 372.7 75.2 129.2 0 254.6-25.3 372.6-75.2 114-48.2 216.4-117.3 304.3-205.2 87.9-87.9 156.9-190.3 205.1-304.3 49.9-118 75.3-243.3 75.3-372.6 0-129.2-25.4-254.6-75.3-372.6-48.2-114-117.2-216.4-205.1-304.3-87.9-87.9-190.3-157-304.3-205.2-118-49.9-243.4-75.2-372.6-75.2z"/>
	</g>
</svg>