<?xml version="1.0" encoding="UTF-8"?>
<!DOCTYPE svg PUBLIC "-//W3C//DTD SVG 1.1//EN" "http://www.w3.org/Graphics/SVG/1.1/DTD/svg11.dtd">
<!-- Creator: CorelDRAW 2021.5 -->
<svg xmlns="http://www.w3.org/2000/svg" xml:space="preserve" width="210mm" height="297mm" version="1.1" style="shape-rendering:geometricPrecision; text-rendering:geometricPrecision; image-rendering:optimizeQuality; fill-rule:evenodd; clip-rule:evenodd"
viewBox="0 0 21000 29700"
 xmlns:xlink="http://www.w3.org/1999/xlink"
 xmlns:xodm="http://www.corel.com/coreldraw/odm/2003">
 <defs>
  <style type="text/css">
   <![CDATA[
    .fil0 {fill:#A589C5}
   ]]>
  </style>
 </defs>
 <g id="Слой_x0020_1">
  <metadata id="CorelCorpID_0Corel-Layer"/>
  <g id="_1468906636848">
   <path class="fil0" d="M1651.11 11399.76c-13.97,196.16 -1.98,228.07 54.67,399.01 70.18,211.76 160.63,111.46 101.6,30.72 -11.09,-15.16 -35.28,-50.03 -66.28,-166.55 -16.66,-62.61 -20.75,-266.11 20.81,-373.66 43.99,-113.85 108.22,-149.22 47.95,-176.54 -92.85,-42.11 -153.81,217.67 -158.75,287.02z"/>
   <path class="fil0" d="M2457.55 11561.35c-51.52,29.65 -118.91,173.14 -54.08,200.87 317.26,135.73 111.23,286.93 75.56,157.8 -35.67,-129.13 -167.29,-99.03 -154.99,1.38 12.3,100.41 209.79,133.67 243.5,88.74 33.71,-44.93 52.73,-43.41 52.73,-146.81 0,-103.39 -102.69,-336.54 -162.72,-301.98z"/>
   <path class="fil0" d="M1805.41 11434.63c-13.28,154.17 -5.84,180.91 51.99,313.6 51.04,117.09 128.02,70.28 96.62,24.14 -8.95,-13.16 -33.55,-39.32 -63.03,-130.89 -15.84,-49.22 -19.65,-209.11 19.79,-293.68 42.38,-90.87 70.55,-127.34 32.5,-155.14 -76.15,-55.62 -133.17,187.47 -137.87,241.97z"/>
   <path class="fil0" d="M1959.77 11448.56c-12.25,113.27 -9.83,144.08 34.86,245.16 46.82,105.9 112.95,44.29 79.31,-23.22 -33.23,-66.7 -64.64,-196.08 -3.85,-297.2 12.34,-20.52 52.35,-71.42 -0.53,-87.2 -81.47,-24.32 -105.46,122.42 -109.79,162.46z"/>
   <path class="fil0" d="M2191.21 11468.15c-6.97,-54.54 9.24,-294.66 133.46,-409.96 127.95,-118.77 281.19,-204.18 513.73,-106.57 124.48,52.25 316.42,218.59 324.46,612.87 2.3,112.94 -70.67,281.42 -137.99,363.69 -87.53,106.96 -113.98,175.87 -153.99,264.28 -30.45,67.3 -79.68,190.05 -287.87,215.13 -139.92,16.86 -289.16,-109.32 -286.46,-226.92 1.89,-81.97 80.46,-69.67 84.52,-19.51 15.3,188.84 240.6,208.74 359.75,75.85 83.05,-92.62 80.26,-180.97 162.33,-284.71 17.46,-22.07 73.59,-98.68 86.89,-114.05 64.48,-74.46 99.53,-237.87 73.69,-398.75 -31.22,-218.63 -121.62,-344.5 -253.56,-405.26 -195.66,-70.61 -307.47,-24.87 -400.92,65.01 -93.46,89.89 -152.56,334.4 -138.7,370.59 13.85,36.19 -72.38,52.85 -79.34,-1.69z"/>
   <path class="fil0" d="M3698.54 11404.48c13.97,196.17 1.98,228.07 -54.67,399.01 -70.18,211.77 -160.62,111.46 -101.6,30.73 11.09,-15.17 35.28,-50.03 66.28,-166.55 16.66,-62.62 20.75,-266.12 -20.81,-373.67 -43.99,-113.85 -108.22,-149.21 -47.95,-176.54 92.86,-42.11 153.81,217.67 158.75,287.02z"/>
   <path class="fil0" d="M3544.24 11439.35c13.28,154.17 5.85,180.91 -51.99,313.6 -51.04,117.09 -128.02,70.28 -96.62,24.14 8.95,-13.15 33.55,-39.32 63.03,-130.89 15.84,-49.21 19.65,-209.11 -19.79,-293.67 -42.38,-90.87 -70.54,-127.35 -32.49,-155.14 76.15,-55.63 133.16,187.46 137.86,241.96z"/>
   <path class="fil0" d="M3389.88 11453.28c12.26,113.28 9.83,144.09 -34.86,245.16 -46.82,105.9 -112.94,44.29 -79.31,-23.22 33.23,-66.7 64.65,-196.08 3.85,-297.2 -12.34,-20.52 -52.35,-71.42 0.53,-87.2 81.47,-24.31 105.46,122.42 109.79,162.46z"/>
   <path class="fil0" d="M2391.12 11282.06c38.25,-109.1 137.52,-173.67 295.12,-151.11 151.49,21.7 258.95,146.08 288.04,349.43 17.35,121.22 -7.42,230.89 -61.38,304.57 -22.14,30.23 -72.46,-7.53 -59.03,-30.69 73.78,-127.2 61.94,-283.57 21.29,-371.68 -127.9,-277.27 -371.76,-189.45 -429.74,-74.55 -12.45,24.66 -64.74,3.81 -54.3,-25.97z"/>
   <path class="fil0" d="M2405.81 11422.71c81.45,-36.98 141.31,-27.48 257.11,56.8 130.82,95.23 150.13,273.66 120.58,395.5 -28.86,119 -113.61,237.29 -196.64,275.35 -34.06,15.61 -68.53,-34.74 -45.52,-48.42 126.4,-75.14 203.64,-250.72 187.18,-346.35 -44.45,-258.28 -213.7,-295.83 -303.26,-274.47 -26.87,6.41 -48.18,-45.37 -19.45,-58.41z"/>
  </g>
 </g>
</svg>
