<?xml version="1.0" encoding="UTF-8"?>
<!DOCTYPE svg PUBLIC "-//W3C//DTD SVG 1.1//EN" "http://www.w3.org/Graphics/SVG/1.1/DTD/svg11.dtd">
<!-- Creator: CorelDRAW 2021.5 -->
<svg xmlns="http://www.w3.org/2000/svg" xml:space="preserve" width="210mm" height="297mm" version="1.1" style="shape-rendering:geometricPrecision; text-rendering:geometricPrecision; image-rendering:optimizeQuality; fill-rule:evenodd; clip-rule:evenodd"
viewBox="0 0 21000 29700"
 xmlns:xlink="http://www.w3.org/1999/xlink"
 xmlns:xodm="http://www.corel.com/coreldraw/odm/2003">
 <defs>
  <style type="text/css">
   <![CDATA[
    .fil0 {fill:#03AEC6}
   ]]>
  </style>
 </defs>
 <g id="Слой_x0020_1">
  <metadata id="CorelCorpID_0Corel-Layer"/>
  <path class="fil0" d="M4403.95 12355.41l0 -226.34 -129 0 0 -199.02 129 0 0 -1074.63 566.34 0c99.51,0 175.63,4.89 228.35,14.32 73.67,12.22 135.47,35.61 185.4,69.83 49.93,34.56 90.09,82.75 120.46,144.55 30.38,61.8 45.39,129.89 45.39,204.26 0,127.09 -40.5,234.98 -121.85,322.97 -81.01,88.34 -228,132.33 -440.29,132.33l-384.78 0 0 186.37 129 0 0 199.02 -129 0 0 226.34 -199.02 0zm199.02 -787.7l387.57 0c128.49,0 219.27,-23.75 273.39,-71.58 53.77,-47.83 80.66,-114.88 80.66,-201.81 0,-62.5 -15.71,-116.28 -47.49,-160.97 -31.77,-44.69 -73.67,-74.37 -125.35,-88.69 -33.52,-8.72 -95.32,-13.26 -185.05,-13.26l-383.73 0 0 536.31z"/>
 </g>
</svg>
