<?xml version="1.0" encoding="UTF-8"?>
<!DOCTYPE svg PUBLIC "-//W3C//DTD SVG 1.1//EN" "http://www.w3.org/Graphics/SVG/1.1/DTD/svg11.dtd">
<!-- Creator: CorelDRAW 2021.5 -->
<svg xmlns="http://www.w3.org/2000/svg" xml:space="preserve" width="210mm" height="297mm" version="1.1" style="shape-rendering:geometricPrecision; text-rendering:geometricPrecision; image-rendering:optimizeQuality; fill-rule:evenodd; clip-rule:evenodd"
viewBox="0 0 21000 29700"
 xmlns:xlink="http://www.w3.org/1999/xlink"
 xmlns:xodm="http://www.corel.com/coreldraw/odm/2003">
 <defs>
  <style type="text/css">
   <![CDATA[
    .fil1 {fill:#DC8D0B;fill-rule:nonzero}
    .fil0 {fill:#FFB715;fill-rule:nonzero}
   ]]>
  </style>
 </defs>
 <g id="Слой_x0020_1">
  <metadata id="CorelCorpID_0Corel-Layer"/>
  <g id="_1432589024032">
   <polygon class="fil0" points="6148.03,12320.89 6311.22,12320.89 6311.22,12275.67 6148.03,12275.67 "/>
   <polygon class="fil0" points="6503.16,12320.89 6666.35,12320.89 6666.35,12120.35 6503.16,12120.35 "/>
   <polygon class="fil0" points="6858.3,12320.89 7021.49,12320.89 7021.49,11919.8 6858.3,11919.8 "/>
   <polygon class="fil0" points="7213.43,12320.89 7376.62,12320.89 7376.62,11617.01 7213.43,11617.01 "/>
   <polygon class="fil0" points="7568.56,12320.89 7731.75,12320.89 7731.75,11198.23 7568.56,11198.23 "/>
   <path class="fil1" d="M7480.53 10997.63c-419.67,602.04 -709.85,804.48 -1366.39,1100.86l-0.49 80.21c677.31,-299.03 996.8,-534.64 1420.89,-1143.18 24.26,19.57 31.23,32.62 48.3,63.08l54.3 -277.7 -238.55 152.19c34.2,4.68 55.07,9.44 81.94,24.54z"/>
  </g>
 </g>
</svg>
