<?xml version="1.0" encoding="UTF-8"?>
<!DOCTYPE svg PUBLIC "-//W3C//DTD SVG 1.1//EN" "http://www.w3.org/Graphics/SVG/1.1/DTD/svg11.dtd">
<!-- Creator: CorelDRAW 2021.5 -->
<svg xmlns="http://www.w3.org/2000/svg" xml:space="preserve" width="210mm" height="297mm" version="1.1" style="shape-rendering:geometricPrecision; text-rendering:geometricPrecision; image-rendering:optimizeQuality; fill-rule:evenodd; clip-rule:evenodd"
viewBox="0 0 21000 29700"
 xmlns:xlink="http://www.w3.org/1999/xlink"
 xmlns:xodm="http://www.corel.com/coreldraw/odm/2003">
 <defs>
  <style type="text/css">
   <![CDATA[
    .fil0 {fill:#D5A81A}
   ]]>
  </style>
 </defs>
 <g id="Слой_x0020_1">
  <metadata id="CorelCorpID_0Corel-Layer"/>
  <path class="fil0" d="M10173.07 14969.66c-511.65,0 -996.58,-195.18 -1365.42,-549.63 -367.78,-353.38 -582.13,-828.09 -603.65,-1336.59 -1.17,-27.91 -1.8,-56.41 -1.8,-84.65 0,-447.17 316.78,-1163.52 941.53,-2129.22 458.38,-708.52 923.15,-1300.05 927.81,-1305.93 24.49,-31.14 61.91,-49.28 101.53,-49.28 39.63,0 77.09,18.14 101.58,49.28 4.66,5.88 469.43,597.41 927.8,1305.93 624.72,965.7 941.53,1682.05 941.53,2129.22 0,15.72 -0.18,31.4 -0.55,47.04 -12.12,516.55 -222.47,1000.22 -592.27,1361.98 -370.42,362.3 -859.85,561.85 -1378.09,561.85zm0 -5114l0 0c-160.66,211.59 -488.63,654.07 -813.26,1155.99 -743.04,1148.87 -899.01,1714.73 -899.01,1987.14 0,24.61 0.52,49.39 1.55,73.7 18.69,441.71 204.95,854.03 524.47,1161.07 320.44,307.91 741.72,477.5 1186.25,477.5 450.26,0 875.44,-173.33 1197.24,-488.12 321.32,-314.27 504.05,-734.49 514.6,-1183.17 0.33,-13.62 0.47,-27.28 0.47,-40.98 0,-272.41 -155.96,-838.27 -899.01,-1987.14 -324.63,-501.92 -652.6,-944.4 -813.3,-1155.99z"/>
  <path class="fil0" d="M11396.42 13143.92c-1.07,0 -2.09,0 -3.12,-0.04 -71.39,-1.69 -127.91,-60.96 -126.22,-132.31 0.22,-8.74 0.33,-17.44 0.33,-26.22 0,-517.6 -863.24,-1726.96 -1195.87,-2149.27 -44.22,-56.07 -34.56,-137.38 21.55,-181.55 56.11,-44.22 137.39,-34.53 181.56,21.55 3.12,3.93 313.17,398.59 618.81,870.99 419.71,648.82 632.55,1132.71 632.55,1438.28 0,10.83 -0.15,21.59 -0.4,32.35 -1.65,70.37 -59.24,126.22 -129.19,126.22z"/>
  <path class="fil0" d="M10173.07 14338.25c-351.21,0 -684.1,-133.96 -937.27,-377.29 -252.47,-242.59 -399.62,-568.43 -414.38,-917.51 -0.81,-19.28 -1.24,-38.82 -1.24,-58.1 0,-71.39 57.91,-129.26 129.29,-129.26 71.43,0 129.3,57.87 129.3,129.26 0,15.68 0.33,31.54 1,47.19 11.93,282.21 130.99,545.74 335.16,741.98 204.81,196.76 474.06,305.17 758.14,305.17 71.43,0 129.31,57.87 129.31,129.26 0,71.43 -57.88,129.3 -129.31,129.3z"/>
  <path class="fil0" d="M10173.22 16835.87c-0.8,0 -1.65,0 -2.5,-0.03 -945.42,-0.7 -1846.71,-407.74 -2473.01,-1117 -13.11,-14.83 -26.08,-29.78 -38.93,-44.87 -507.47,-595.87 -786.97,-1355.66 -786.97,-2139.39 0,-56.56 36.73,-106.5 90.67,-123.43 53.95,-16.85 112.63,3.23 144.84,49.69 3.48,4.99 356.17,508.9 802.57,848.15 195,148.21 444.64,249.75 708.93,357.31 264.77,107.7 564.84,229.81 854.87,418.3 521.43,338.96 718.96,765.38 792.84,1063.42 42.53,171.64 50.13,321.33 47.49,426.06 759.83,-34.41 1469.2,-346.63 2010.6,-888.03 574.67,-574.67 891.15,-1338.76 891.15,-2151.47 0,-71.43 57.91,-129.31 129.3,-129.31 71.39,0 129.3,57.88 129.3,129.31 0,881.78 -343.39,1710.79 -966.91,2334.35 -622.92,622.92 -1450.87,966.25 -2331.71,966.91 -0.84,0.03 -1.69,0.03 -2.53,0.03zm-3015.34 -2893.56l0 0c77.78,574.82 318.76,1119.01 697.77,1563.98 11.82,13.92 23.8,27.73 35.88,41.42 551.69,624.73 1334.8,995.08 2163.7,1027.25 2.72,-87.55 -2.83,-221.47 -42.56,-376.12 -93.2,-362.82 -321.98,-664.75 -679.92,-897.42 -269.36,-175.1 -544.89,-287.21 -811.39,-395.62 -280.6,-114.17 -545.66,-222.02 -767.94,-390.95 -235.76,-179.13 -443.47,-395.87 -595.54,-572.54z"/>
  <path class="fil0" d="M8703.61 16254.96c-135.79,0 -275.12,-9.22 -412.1,-32.03 -70.43,-11.75 -118.02,-78.36 -106.27,-148.8 11.75,-70.43 78.4,-117.99 148.8,-106.27 449.96,75.02 938.67,-13.99 1189.96,-73.74 69.41,-16.56 139.18,26.4 155.67,95.88 16.52,69.45 -26.4,139.18 -95.88,155.67 -195.44,46.49 -525.39,109.29 -880.18,109.29z"/>
  <path class="fil0" d="M9553.93 16149.19c-0.4,0 -0.81,0 -1.21,0 -71.21,-0.65 -128.46,-58.75 -128.13,-129.92 0,-4.15 -2.05,-204.07 -120.56,-441.3 -158.64,-317.65 -442.14,-551.24 -842.64,-694.24 -67.23,-24.01 -102.3,-98.01 -78.29,-165.25 24.02,-67.24 97.98,-102.31 165.25,-78.29 587.09,209.65 864.42,570.15 993.68,835.7 141.79,291.28 141.24,534.97 141.17,545.18 -0.67,71.02 -58.43,128.12 -129.27,128.12z"/>
  <path class="fil0" d="M8250.86 15740.03c-149.79,0 -310.56,-8.15 -481.47,-24.42 -71.09,-6.79 -123.24,-69.92 -116.45,-141.01 6.8,-71.06 69.82,-123.21 141.02,-116.42 358.67,34.19 666.88,30.78 915.93,-10.17 70.51,-11.6 136.98,36.14 148.59,106.61 11.6,70.43 -36.14,136.97 -106.61,148.54 -149.42,24.57 -316.95,36.87 -501.01,36.87z"/>
  <path class="fil0" d="M8730.97 15704.89c-1.46,0 -2.94,-0.04 -4.4,-0.08 -71.13,-2.38 -126.91,-61.76 -124.93,-132.86 0.03,-1.87 1.54,-101.61 -40.73,-246.52 -56.48,-193.71 -160.36,-372.66 -308.8,-531.78 -48.69,-52.22 -45.83,-134.04 6.39,-182.77 52.22,-48.69 134.04,-45.83 182.73,6.39 430.46,461.64 419.56,942.38 418.86,962.61 -2.31,69.92 -59.71,125.01 -129.12,125.01z"/>
  <path class="fil0" d="M10173.18 16835.87c-45.35,0 -89.42,-23.94 -113.03,-66.43 -2.35,-4.19 -238.73,-423.3 -581.68,-651.94 -134.89,-89.93 -308.4,-184.38 -492.09,-284.41 -769.7,-419.05 -1823.87,-992.99 -2111.41,-2270.13 -15.68,-69.66 28.06,-138.85 97.76,-154.53 69.63,-15.6 138.85,28.06 154.53,97.72 115.6,513.57 378.64,948.04 804.15,1328.23 372.15,332.52 800.59,565.78 1178.62,771.61 188.9,102.86 367.37,200 511.87,296.35 396.06,264.04 653.45,722.05 664.21,741.4 34.7,62.43 12.23,141.13 -50.2,175.83 -19.91,11.05 -41.46,16.3 -62.73,16.3z"/>
  <path class="fil0" d="M10173.07 16835.84c-881.78,0 -1710.79,-343.4 -2334.31,-966.91 -623.55,-623.56 -966.95,-1452.57 -966.95,-2334.35 0,-71.43 57.88,-129.31 129.31,-129.31 71.38,0 129.29,57.88 129.29,129.31 0,812.71 316.48,1576.8 891.15,2151.47 541.41,541.4 1250.78,853.62 2010.61,888.03 -2.64,-104.73 4.92,-254.42 47.48,-426.06 73.89,-298.04 271.42,-724.46 792.88,-1063.42 289.96,-188.49 590.06,-310.6 854.83,-418.3 264.3,-107.56 513.94,-209.14 708.93,-357.31 446.41,-339.25 799.09,-843.16 802.61,-848.19 32.25,-46.42 90.9,-66.54 144.84,-49.58 53.91,16.9 90.63,66.8 90.63,123.36 0,783.73 -279.5,1543.56 -786.96,2139.39 -12.82,15.05 -25.82,30.04 -38.89,44.87 -626.9,709.89 -1529.14,1117 -2475.45,1117zm3015.23 -2893.53l0 0c-152.07,176.67 -359.77,393.41 -595.53,572.58 -222.28,168.89 -487.35,276.74 -767.98,390.91 -266.46,108.41 -541.99,220.52 -811.35,395.62 -357.94,232.67 -586.72,534.6 -679.92,897.42 -39.73,154.65 -45.28,288.57 -42.53,376.12 828.83,-32.17 1611.98,-402.52 2163.67,-1027.28 12.08,-13.66 24.01,-27.47 35.88,-41.35 378.97,-445.01 619.98,-989.2 697.76,-1564.02z"/>
  <path class="fil0" d="M11642.57 16254.96c-354.85,0 -684.73,-62.8 -880.17,-109.29 -69.48,-16.49 -112.41,-86.22 -95.88,-155.67 16.49,-69.48 86.19,-112.41 155.67,-95.88 251.29,59.71 739.99,148.73 1189.96,73.74 70.47,-11.72 137.05,35.84 148.8,106.27 11.75,70.44 -35.85,137.05 -106.28,148.8 -136.94,22.81 -276.37,32.03 -412.1,32.03z"/>
  <path class="fil0" d="M10792.26 16149.19c-70.84,0 -128.61,-57.1 -129.27,-128.12 -0.07,-10.21 -0.62,-253.9 141.2,-545.18 129.23,-265.55 406.56,-626.05 993.64,-835.7 67.24,-24.02 141.2,11.05 165.22,78.29 24.02,67.24 -11.02,141.24 -78.25,165.25 -959.28,342.51 -963.32,1127.13 -963.24,1134.99 0.66,71.43 -56.7,129.82 -128.09,130.47 -0.4,0 -0.81,0 -1.21,0z"/>
  <path class="fil0" d="M12095.29 15740.03c-184.06,0 -351.55,-12.26 -500.98,-36.87 -70.46,-11.57 -118.17,-78.11 -106.6,-148.54 11.61,-70.47 78.11,-118.18 148.54,-106.61 249.1,40.95 557.27,44.36 915.98,10.17 71.09,-6.9 134.22,45.32 141.01,116.42 6.76,71.09 -45.35,134.22 -116.45,141.01 -170.87,16.27 -331.67,24.42 -481.5,24.42z"/>
  <path class="fil0" d="M11615.25 15705.25c-69.41,0 -126.84,-55.45 -129.15,-125.37 -0.7,-20.23 -11.61,-500.97 418.85,-962.61 48.7,-52.22 130.51,-55.05 182.73,-6.39 52.23,48.73 55.09,130.55 6.39,182.73 -148.43,159.16 -252.31,338.11 -308.79,531.82 -42.46,145.57 -40.76,245.57 -40.73,246.56 2.38,71.35 -53.54,130.77 -124.93,133.19 -1.43,0.04 -2.9,0.07 -4.37,0.07z"/>
  <path class="fil0" d="M10172.96 16835.87c-21.26,0 -42.78,-5.25 -62.68,-16.3 -62.39,-34.7 -84.9,-113.4 -50.2,-175.83 10.76,-19.35 268.15,-477.36 664.2,-741.4 144.51,-96.35 322.94,-193.49 511.88,-296.35 378.02,-205.83 806.51,-439.09 1178.61,-771.61 425.51,-380.19 688.56,-814.66 804.16,-1328.23 15.68,-69.66 84.9,-113.4 154.53,-97.72 69.66,15.68 113.43,84.87 97.75,154.53 -287.53,1277.14 -1341.7,1851.08 -2111.4,2270.13 -183.69,100.03 -357.2,194.48 -492.09,284.41 -344.46,229.63 -579.3,647.64 -581.61,651.87 -23.65,42.49 -67.72,66.5 -113.15,66.5z"/>
  <path class="fil0" d="M10173.07 18746.37c-731.95,0 -1442.06,-143.39 -2110.63,-426.17 -645.74,-273.1 -1225.58,-664.05 -1723.54,-1162.01 -497.93,-497.93 -888.88,-1077.81 -1161.98,-1723.51 -282.8,-668.57 -426.17,-1378.71 -426.17,-2110.67 0,-731.96 143.37,-1442.07 426.17,-2110.64 273.1,-645.73 664.05,-1225.62 1161.98,-1723.54 497.96,-497.93 1077.8,-888.91 1723.54,-1161.98 668.57,-282.8 1378.68,-426.17 2110.63,-426.17 731.96,0 1442.1,143.37 2110.68,426.17 645.73,273.07 1225.58,664.05 1723.54,1161.98 497.92,497.92 888.87,1077.81 1161.98,1723.54 282.8,668.57 426.17,1378.68 426.17,2110.64 0,731.96 -143.37,1442.1 -426.17,2110.67 -273.11,645.7 -664.06,1225.58 -1161.98,1723.51 -497.96,497.96 -1077.81,888.91 -1723.54,1162.01 -668.58,282.78 -1378.72,426.17 -2110.68,426.17zm0 -10586.13l0 0c-697.14,0 -1373.39,136.5 -2009.9,405.75 -614.88,260.08 -1167.12,632.41 -1641.4,1106.68 -474.31,474.27 -846.64,1026.55 -1106.71,1641.39 -269.21,636.56 -405.71,1312.81 -405.71,2009.95 0,697.18 136.5,1373.43 405.71,2009.94 260.07,614.89 632.4,1167.12 1106.71,1641.39 474.28,474.28 1026.52,846.61 1641.4,1106.72 636.51,269.21 1312.76,405.71 2009.9,405.71 697.18,0 1373.43,-136.5 2009.95,-405.71 614.88,-260.11 1167.15,-632.44 1641.39,-1106.72 474.28,-474.27 846.64,-1026.5 1106.71,-1641.39 269.22,-636.51 405.75,-1312.76 405.75,-2009.94 0,-697.14 -136.53,-1373.39 -405.75,-2009.95 -260.07,-614.84 -632.43,-1167.12 -1106.71,-1641.39 -474.24,-474.27 -1026.51,-846.6 -1641.39,-1106.68 -636.52,-269.25 -1312.77,-405.75 -2009.95,-405.75z"/>
 </g>
</svg>
