<?xml version="1.0" encoding="UTF-8"?>
<!DOCTYPE svg PUBLIC "-//W3C//DTD SVG 1.1//EN" "http://www.w3.org/Graphics/SVG/1.1/DTD/svg11.dtd">
<!-- Creator: CorelDRAW 2021.5 -->
<svg xmlns="http://www.w3.org/2000/svg" xml:space="preserve" width="210mm" height="297mm" version="1.1" style="shape-rendering:geometricPrecision; text-rendering:geometricPrecision; image-rendering:optimizeQuality; fill-rule:evenodd; clip-rule:evenodd"
viewBox="0 0 21000 29700"
 xmlns:xlink="http://www.w3.org/1999/xlink"
 xmlns:xodm="http://www.corel.com/coreldraw/odm/2003">
 <defs>
  <style type="text/css">
   <![CDATA[
    .fil0 {fill:#D5A81A}
   ]]>
  </style>
 </defs>
 <g id="Слой_x0020_1">
  <metadata id="CorelCorpID_0Corel-Layer"/>
  <path class="fil0" d="M8913.41 15628.77c-17.18,0 -33.85,-2.34 -51.04,-7.24 -97.37,-28.07 -153.62,-129.67 -125.5,-226.94 5.21,-18.29 523.89,-1834.75 340.06,-2675.73 -25.52,-115.55 -60.41,-224.5 -105.71,-326.67 -18.23,102.43 -32.3,166.49 -33.85,174.72 -4.17,18.48 -10.94,35.88 -19.79,51.81 -120.82,374.58 -404.11,847.85 -1071.21,1069.33 -496.8,164.87 -1182.13,182.58 -2037.22,52.6 -627.51,-95.35 -1108.17,-235.54 -1127.97,-241.42 -57.8,-16.98 -103.62,-61.09 -122.37,-118.17 -19.27,-57.02 -8.85,-119.72 27.08,-167.84 13.02,-16.77 314.01,-416.4 759.79,-868.26 607.72,-615.65 1167.54,-1011.32 1664.35,-1176.19 368.7,-122.54 728.03,-125.2 1066.52,-7.97 114.05,35.67 316.1,112.43 531.69,257.26 36.46,24.37 71.87,49.62 105.72,75.87 5.21,-81.19 8.33,-163.05 8.85,-243.87 1.56,-210.39 -12.5,-409.06 -36.97,-594.19 -47.39,19.53 -94.78,37.96 -142.17,55.36 -691.05,253.14 -1346.17,267.46 -1894.53,41.24 -1150.88,-474.57 -2085.64,-2300.31 -2124.7,-2377.79 -26.56,-52.65 -26.56,-114.94 0.52,-167.33 27.6,-52.38 78.11,-88.47 136.44,-96.96 20.83,-2.97 516.59,-73.74 1151.4,-79.26 864.98,-7.44 1540.93,107.02 2009.1,340.48 245.8,122.63 447.33,285.68 599.39,484.82l1.04 0.63c8.33,8.07 15.63,16.97 22.39,26.55 18.75,26.62 331.73,479.32 514.52,1234.47 385.36,-215.18 760.83,-507.38 1097.24,-866.29 597.31,-637.93 654.59,-1335.28 658.24,-1388.76 -3.12,-1118.86 -1099.84,-2714.52 -1111.3,-2730.56 -57.29,-83.22 -36.97,-197.42 46.35,-255.12 83.32,-57.65 197.36,-37.03 255.17,46.19 11.97,17.24 296.31,428.95 584.81,994.65 392.65,770.73 591.58,1426.73 591.58,1949.84 0,2.76 0,5.47 0,8.23 -1.55,35.09 -46.86,867.95 -757.18,1626.23 -380.16,405.41 -825.93,746.3 -1290.44,990.33 36.45,232.73 57.8,486.96 55.72,760 -1.57,194.81 -16.14,392.76 -35.94,573.93 185.4,232.68 314.55,507.22 381.72,813.74 203.62,931.54 -323.39,2777.53 -345.78,2855.69 -23.44,80.31 -96.34,132.54 -176.02,132.59zm-3861.44 -2411.59l0 0c557.73,134.98 1858.07,395.36 2678.79,122.9 435.88,-144.72 721.26,-437.02 848.32,-868.68 2.08,-7.39 4.69,-14.58 7.81,-21.51 15.63,-78.95 52.08,-269.44 83.32,-506.33 -76.03,-77.96 -160.91,-149.1 -254.65,-213.21 -185.38,-126.38 -359.32,-191.63 -448.89,-219.76l-72.39 -19.99c-10.42,-2.87 -20.31,-6.62 -29.68,-11.09 -234.34,-60.36 -482.23,-47.97 -739.48,37.28 -821.24,272.83 -1707.05,1258.89 -2073.15,1700.39zm-72.39 -4774.13l0 0c103.11,179.56 262.99,443.22 462.96,721.46 463.48,644.92 929.03,1076.78 1346.17,1248.95 522.84,215.64 1179.52,156.95 1831.51,-127.12 -149.46,-670.33 -415.56,-1100.63 -466.6,-1179.16 -6.25,-5.89 -11.46,-12.14 -16.14,-18.75 -118.73,-158.52 -280.18,-289.28 -479.62,-388.7 -778.02,-388.01 -2112.73,-311.41 -2678.28,-256.68z"/>
  <path class="fil0" d="M10595.46 15628.77c-79.67,0 -153.1,-52.28 -176.53,-132.59 -22.4,-78.16 -549.4,-1924.15 -345.26,-2855.69 66.65,-306.52 196.32,-581.06 381.19,-813.74 -19.78,-181.17 -34.37,-379.12 -35.93,-573.93 -2.08,-273.04 19.27,-527.27 55.72,-760 -464.52,-244.03 -910.29,-584.92 -1289.92,-990.33 -710.84,-758.28 -756.15,-1591.14 -757.71,-1626.23 0,-2.71 0,-5.47 0,-8.23 0,-523.11 198.93,-1179.11 592.11,-1949.84 287.98,-565.7 572.31,-977.41 584.29,-994.65 57.8,-83.22 172.37,-103.89 255.17,-46.19 83.33,57.7 104.15,171.95 46.35,255.12 -10.93,16.04 -1107.66,1611.44 -1111.31,2730.25 3.65,51.45 64.58,755.26 658.77,1389.07 335.89,358.91 711.35,651.11 1096.72,866.24 183.31,-755.1 495.76,-1207.8 514.51,-1234.42 6.77,-9.58 14.06,-18.48 22.91,-26.55l0.53 -0.63c152.05,-199.14 353.6,-362.19 599.91,-484.82 468.17,-233.46 1144.11,-347.77 2009.09,-340.48 634.81,5.52 1130.06,76.29 1150.89,79.26 58.32,8.49 109.35,44.58 136.43,96.96 27.09,52.39 27.61,114.68 1.05,167.33 -39.58,77.48 -974.34,1903.22 -2124.71,2377.79 -548.36,226.22 -1203.99,211.9 -1895.04,-41.24 -47.4,-17.4 -94.78,-35.83 -142.17,-55.36 -24.48,185.13 -38.53,383.8 -36.98,594.19 0.52,80.82 3.65,162.73 8.85,243.87 34.38,-26.25 69.27,-51.5 105.72,-75.87 215.6,-144.78 417.65,-221.49 531.7,-257.21 338.5,-117.28 697.82,-114.67 1067.04,7.92 496.28,164.87 1056.1,560.54 1663.82,1176.19 445.77,451.86 747.3,851.49 759.8,868.26 35.93,48.12 46.34,110.82 27.08,167.84 -18.75,57.08 -64.58,101.19 -121.87,118.17 -20.3,5.88 -500.44,146.07 -1128.48,241.42 -855.09,129.93 -1540.4,112.27 -2036.7,-52.6 -667.09,-221.48 -950.9,-694.8 -1071.2,-1069.43 -9.38,-15.83 -16.14,-33.23 -19.79,-51.71 -2.08,-8.23 -15.62,-72.29 -34.36,-174.72 -44.79,102.17 -80.2,211.12 -105.72,326.67 -183.83,840.98 334.85,2657.44 340.05,2675.73 28.13,97.27 -28.11,198.87 -125.5,226.94 -16.66,4.9 -33.85,7.24 -50.52,7.24zm326 -3178.88l0 0c3.13,6.93 5.73,14.12 7.82,21.51 127.06,431.66 412.96,723.96 848.31,868.68 821.76,272.82 2121.58,12.29 2678.8,-122.8 -366.1,-441.45 -1252.43,-1427.98 -2073.15,-1700.49 -256.74,-85.25 -505.14,-97.69 -738.96,-37.28 -9.89,4.47 -19.79,8.22 -30.21,11.09l-72.38 20.15c-89.57,28.07 -263.51,93.32 -448.89,219.6 -93.74,64.16 -178.63,135.3 -254.14,213.31 30.73,236.94 67.18,427.33 82.8,506.23zm-33.32 -2163.55l0 0c652.51,284.12 1308.66,342.81 1831.51,127.12 799.36,-329.75 1523.74,-1473.03 1809.12,-1970.41 -565.55,-54.78 -1900.26,-131.33 -2678.27,256.68 -199.45,99.42 -360.37,230.18 -479.1,388.7 -5.2,6.61 -10.41,12.92 -16.14,18.8 -51.04,77.85 -317.15,508.21 -467.12,1179.11z"/>
  <path class="fil0" d="M9754.44 9953.62c-101.55,0 -183.31,-82.07 -183.31,-183.36l0 -3076.34c0,-101.23 81.76,-183.36 183.31,-183.36 101.02,0 183.31,82.13 183.31,183.36l0 3076.34c0,101.29 -82.29,183.36 -183.31,183.36z"/>
  <path class="fil0" d="M9754.44 8423.83c-48.95,0 -95.3,-19.31 -129.67,-53.68l-532.74 -532.64c-71.86,-71.6 -71.86,-187.68 0,-259.29 71.34,-71.6 187.48,-71.6 259.34,0l403.07 402.97 402.55 -402.97c71.86,-71.6 187.99,-71.6 259.34,0 71.86,71.61 71.86,187.69 0,259.29l-532.22 532.64c-34.37,34.37 -81.24,53.68 -129.67,53.68z"/>
  <path class="fil0" d="M10718.89 10552.6c-67.18,0 -132.28,-37.34 -164.56,-101.86 -44.79,-90.72 -7.82,-200.75 82.8,-245.75l2755.86 -1367.36c90.61,-45.04 201.01,-7.96 245.8,82.75 44.79,90.67 7.81,200.7 -82.8,245.7l-2755.86 1367.36c-26.04,13.02 -53.65,19.16 -81.24,19.16z"/>
  <path class="fil0" d="M12802.97 10113.03c-19.27,0 -39.06,-3.13 -58.33,-9.64l-713.95 -240.33c-45.84,-15.57 -84.36,-48.74 -105.72,-92.28 -21.87,-43.58 -25,-93.94 -9.37,-140.03l240.06 -713.8c32.29,-95.98 136.45,-147.59 232.26,-115.3 96.34,32.34 147.9,136.33 115.61,232.26l-182.26 540.13 540.02 181.8c96.35,32.34 147.9,136.33 115.61,232.26 -26.04,76.6 -97.38,124.93 -173.93,124.93z"/>
  <path class="fil0" d="M13506.52 13159.74c-22.4,0 -44.79,-4.01 -66.66,-12.55l-2866.27 -1116.88c-94.25,-36.76 -141.12,-143.05 -104.14,-237.36 36.45,-94.41 142.68,-141.08 237.46,-104.31l2866.27 1116.88c94.25,36.76 141.12,143.05 104.15,237.41 -28.12,72.49 -97.39,116.81 -170.81,116.81z"/>
  <path class="fil0" d="M12368.65 13287.9c-70.82,0 -137.99,-40.93 -168.2,-109.67l-303.08 -689.59c-19.27,-44.58 -20.31,-95.05 -2.6,-140.35 17.7,-45.31 52.59,-81.76 96.86,-101.29l690 -302.87c92.69,-40.73 200.5,1.41 241.63,94.1 40.62,92.74 -1.56,200.91 -94.25,241.63l-521.8 229.14 229.13 521.74c40.62,92.76 -1.56,200.92 -94.26,241.64 -23.95,10.57 -48.95,15.52 -73.43,15.52z"/>
  <path class="fil0" d="M8786.35 10552.6c-27.61,0 -55.21,-6.14 -81.77,-19.16l-2755.34 -1367.36c-91.13,-45 -128.11,-155.03 -82.8,-245.7 44.79,-90.71 154.66,-127.74 245.8,-82.75l2755.34 1367.36c91.14,45 128.11,155.03 82.81,245.7 -31.77,64.52 -96.87,101.91 -164.04,101.91z"/>
  <path class="fil0" d="M6702.26 10113.03c-76.55,0 -147.9,-48.33 -173.93,-124.93 -32.29,-95.93 19.27,-199.92 115.09,-232.26l540.02 -181.8 -181.74 -540.08c-32.29,-95.98 19.26,-199.97 115.09,-232.31 96.34,-32.29 199.96,19.32 232.26,115.24l240.58 713.86c15.63,46.09 11.98,96.45 -9.37,140.03 -21.87,43.54 -59.88,76.71 -105.72,92.28l-713.96 240.33c-19.26,6.51 -39.06,9.64 -58.32,9.64z"/>
  <path class="fil0" d="M5998.71 13159.74c-73.43,0 -142.68,-44.37 -170.81,-116.81 -36.97,-94.36 9.9,-200.65 104.15,-237.41l2866.27 -1116.88c94.26,-36.77 201.01,9.95 237.47,104.31 36.98,94.31 -9.9,200.6 -104.15,237.36l-2866.27 1116.88c-21.87,8.54 -44.79,12.55 -66.66,12.55z"/>
  <path class="fil0" d="M7136.57 13287.9c-24.47,0 -49.47,-5 -73.42,-15.52 -92.7,-40.72 -134.88,-148.88 -94.26,-241.64l229.13 -521.74 -521.79 -229.14c-92.71,-40.72 -134.89,-148.89 -94.27,-241.63 40.63,-92.69 148.94,-134.83 241.64,-94.1l690 302.87c44.27,19.53 79.16,55.98 96.86,101.29 17.72,45.3 16.67,95.77 -3.12,140.29l-302.56 689.65c-30.2,68.74 -97.38,109.67 -168.21,109.67z"/>
  <path class="fil0" d="M9754.44 18262.47c-1038.39,0 -2045.03,-203.34 -2993.34,-604.35 -915.49,-387.29 -1737.78,-941.69 -2443.92,-1647.84 -706.15,-706.1 -1260.77,-1528.43 -1648.22,-2444.09 -400.98,-948.09 -604.08,-1955.14 -604.08,-2993.12 0,-1037.98 203.1,-2044.98 604.08,-2993.07 387.45,-915.71 942.07,-1738.04 1648.22,-2444.14 706.14,-706.11 1528.43,-1260.56 2443.92,-1647.8 948.31,-401.03 1954.95,-604.34 2993.34,-604.34 1037.88,0 2045.03,203.31 2992.81,604.34 916.01,387.24 1738.3,941.69 2444.45,1647.8 705.63,706.1 1260.24,1528.43 1647.69,2444.14 400.98,948.09 604.08,1955.09 604.08,2993.07 0,1037.98 -203.1,2045.03 -604.08,2993.12 -387.45,915.66 -942.06,1737.99 -1647.69,2444.09 -706.15,706.15 -1528.44,1260.55 -2444.45,1647.84 -947.78,401.01 -1954.93,604.35 -2992.81,604.35zm0 -15012.08l0 0c-988.93,0 -1947.65,193.57 -2850.64,575.39 -871.76,368.8 -1654.99,896.8 -2327.28,1569.36 -672.83,672.57 -1200.88,1455.74 -1569.58,2327.65 -381.72,902.69 -575.44,1861.67 -575.44,2850.28 0,988.66 193.72,1947.64 575.44,2850.28 368.7,871.96 896.75,1655.08 1569.58,2327.64 672.29,672.57 1455.52,1200.57 2327.28,1569.42 902.99,381.77 1861.71,575.33 2850.64,575.33 988.41,0 1947.64,-193.56 2850.12,-575.33 871.76,-368.85 1654.98,-896.85 2327.8,-1569.42 672.3,-672.56 1200.35,-1455.68 1569.05,-2327.64 381.72,-902.64 575.44,-1861.62 575.44,-2850.28 0,-988.61 -193.72,-1947.59 -575.44,-2850.28 -368.7,-871.91 -896.75,-1655.08 -1569.05,-2327.65 -672.82,-672.56 -1456.04,-1200.56 -2327.8,-1569.36 -902.48,-381.82 -1861.71,-575.39 -2850.12,-575.39z"/>
 </g>
</svg>
