<?xml version="1.0" encoding="UTF-8"?>
<!DOCTYPE svg PUBLIC "-//W3C//DTD SVG 1.1//EN" "http://www.w3.org/Graphics/SVG/1.1/DTD/svg11.dtd">
<!-- Creator: CorelDRAW 2021.5 -->
<svg xmlns="http://www.w3.org/2000/svg" xml:space="preserve" width="210mm" height="297mm" version="1.1" style="shape-rendering:geometricPrecision; text-rendering:geometricPrecision; image-rendering:optimizeQuality; fill-rule:evenodd; clip-rule:evenodd"
viewBox="0 0 21000 29700"
 xmlns:xlink="http://www.w3.org/1999/xlink"
 xmlns:xodm="http://www.corel.com/coreldraw/odm/2003">
 <defs>
  <style type="text/css">
   <![CDATA[
    .fil0 {fill:#01FFAE}
   ]]>
  </style>
 </defs>
 <g id="Слой_x0020_1">
  <metadata id="CorelCorpID_0Corel-Layer"/>
  <path class="fil0" d="M583.75 11268.89l320.4 320.4c71.44,71.43 71.13,100.45 0,171.58l-320.4 320.4c-29.48,29.49 -77.74,29.49 -107.23,0l0 0c-29.49,-29.49 -29.48,-77.75 0,-107.23l223.69 -223.69 -786.54 0c-41.7,0 -75.82,-34.12 -75.82,-75.83l0 0c0,-41.7 34.12,-75.82 75.82,-75.82l785.43 0 -222.58 -222.58c-29.48,-29.48 -29.49,-77.74 0,-107.23l0 0c29.49,-29.49 77.74,-29.49 107.23,0zm772.32 406.19c0,414.22 -335.78,750 -750,750 -229.98,0 -435.74,-103.55 -573.31,-266.52 -16.76,-33.64 -6.2,-75.6 25.85,-96.94l0 0c28.52,-18.97 65.53,-15.95 90.65,4.98 4.83,5.63 9.76,11.16 14.79,16.6l0.14 0.21 0.02 -0.04c109.92,118.89 267.18,193.36 441.86,193.36 332.28,0 601.65,-269.37 601.65,-601.65 0,-332.28 -269.37,-601.65 -601.65,-601.65 -174.68,0 -331.94,74.47 -441.86,193.36l-0.02 -0.03 -0.14 0.2c-5.03,5.44 -9.96,10.97 -14.79,16.6 -25.12,20.93 -62.13,23.95 -90.65,4.98l0 0c-32.05,-21.34 -42.61,-63.3 -25.85,-96.94 137.57,-162.97 343.33,-266.52 573.31,-266.52 414.22,0 750,335.79 750,750z"/>
 </g>
</svg>
