<svg version="1.2" xmlns="http://www.w3.org/2000/svg" viewBox="0 0 5250 7425" width="5250" height="7425">
	<title>new-svg</title>
	<style>
		.s0 { fill: #a589c5 } 
	</style>
	<g id="Слой_x0020_1">
		<g id="_1468906636848">
			<path id="Layer" fill-rule="evenodd" class="s0" d="m622.7 2678.3c139.5 63.2-9.2 145.1-111 408.6-96.2 249-86.7 720-48.2 865 71.8 269.7 127.8 350.4 153.5 385.5 136.6 186.9-72.8 419.1-235.2-71.1-131.2-395.7-158.9-469.6-126.6-923.6 11.5-160.6 152.6-761.9 367.5-664.4z"/>
			<path id="Layer" fill-rule="evenodd" class="s0" d="m2498.6 4415.7c0 239.4-44 235.9-122 339.9-78.1 104-535.2 27-563.7-205.5-28.5-232.4 276.2-302.1 358.8-3.2 82.5 299 559.5-51-174.9-365.2-150.1-64.2 5.9-396.4 125.2-465 138.9-80 376.6 459.7 376.6 699z"/>
			<path id="Layer" fill-rule="evenodd" class="s0" d="m931.5 2863.3c88.1 64.3 22.9 148.8-75.2 359.1-91.3 195.8-82.5 565.9-45.8 679.8 68.2 212 125.2 272.5 145.9 303 72.7 106.8-105.5 215.1-223.7-55.9-133.8-307.2-151-369-120.3-725.9 10.9-126.2 142.9-688.9 319.1-560.1z"/>
			<path id="Layer" fill-rule="evenodd" class="s0" d="m1223.8 3079.6c122.4 36.5 29.8 154.3 1.3 201.8-140.7 234.1-68 533.6 8.9 688 77.9 156.2-75.2 298.9-183.6 53.7-103.4-234-109-305.3-80.7-567.5 10-92.7 65.6-432.3 254.1-376z"/>
			<path id="Layer" fill-rule="evenodd" class="s0" d="m1505.4 3501c-16.1-126.3 21.4-682.1 309-949 296.1-274.9 650.9-472.6 1189.1-246.7 288.2 121 732.5 506 751.1 1418.7 5.3 261.4-163.6 651.4-319.4 841.8-202.6 247.6-263.9 407.1-356.5 611.8-70.5 155.8-184.4 439.9-666.3 498-323.9 39-669.4-253.1-663.1-525.3 4.3-189.7 186.2-161.3 195.6-45.2 35.4 437.2 557 483.2 832.8 175.6 192.2-214.4 185.7-418.9 375.7-659 40.4-51.1 170.4-228.5 201.1-264 149.3-172.4 230.4-550.6 170.6-923-72.3-506.1-281.5-797.5-586.9-938.1-452.9-163.5-711.7-57.6-928.1 150.5-216.3 208-353.1 774-321 857.8 32 83.8-167.6 122.3-183.7-3.9z"/>
			<path id="Layer" fill-rule="evenodd" class="s0" d="m4994.6 3353.6c32.3 454.1 4.5 527.9-126.6 923.6-162.4 490.2-371.8 258-235.2 71.1 25.7-35.1 81.7-115.8 153.4-385.5 38.6-144.9 48.1-616-48.1-864.9-101.8-263.6-250.5-345.4-111-408.7 214.9-97.5 356 503.9 367.5 664.4z"/>
			<path id="Layer" fill-rule="evenodd" class="s0" d="m4637.4 3434.3c30.7 356.9 13.5 418.8-120.4 725.9-118.1 271.1-296.3 162.7-223.6 55.9 20.7-30.4 77.6-91 145.9-303 36.7-113.9 45.5-484-45.8-679.8-98.1-210.3-163.3-294.7-75.2-359.1 176.2-128.7 308.2 434 319.1 560.1z"/>
			<path id="Layer" fill-rule="evenodd" class="s0" d="m4280.1 3466.6c28.4 262.2 22.7 333.5-80.7 567.4-108.4 245.2-261.4 102.6-183.6-53.7 76.9-154.4 149.7-453.9 8.9-688-28.6-47.5-121.2-165.3 1.2-201.8 188.6-56.3 244.2 283.4 254.2 376.1z"/>
			<path id="Layer" fill-rule="evenodd" class="s0" d="m1968.2 3070.2c88.5-252.5 318.3-402 683.1-349.8 350.7 50.3 599.4 338.2 666.8 808.9 40.1 280.6-17.2 534.4-142.1 705-51.3 70-167.7-17.4-136.7-71 170.8-294.5 143.4-656.4 49.3-860.4-296-641.8-860.5-438.5-994.7-172.6-28.8 57.1-149.9 8.9-125.7-60.1z"/>
			<path id="Layer" fill-rule="evenodd" class="s0" d="m2002.2 3395.8c188.5-85.6 327.1-63.6 595.1 131.5 302.9 220.4 347.6 633.4 279.1 915.5-66.8 275.4-262.9 549.2-455.1 637.3-78.9 36.2-158.7-80.4-105.4-112 292.6-174 471.4-580.4 433.3-801.8-102.9-597.8-494.7-684.7-702-635.3-62.2 14.8-111.5-105-45-135.2z"/>
		</g>
	</g>
</svg>